<svg xmlns="http://www.w3.org/2000/svg" xmlns:v="https://svgstorm.com"
viewBox = "0 0 800 1000"
width="800"
height="1000">
<g fill="None" fill-opacity="0.0" stroke="#1B275C" stroke-opacity="0.00" stroke-width="0.3"><path d="
M 0.00 1000.00 
L 800.00 1000.00
L 800.00 0.00
L 0.00 0.00
L 0.00 1000.00
M 396.00 121.00 
C 393.14 125.25 393.36 132.86 394.00 138.00 C 394.64 143.14 390.03 152.30 397.00 152.00
C 397.10 158.56 390.75 156.74 385.00 157.00 C 379.25 157.26 370.98 156.80 365.00 157.00
C 364.35 153.90 365.23 150.93 369.00 152.00
C 366.57 142.04 370.16 130.48 366.00 121.00
C 370.37 116.39 377.37 115.79 381.00 111.00
C 384.64 115.80 391.68 116.43 396.00 121.00
M 536.00 163.00 
C 536.00 171.33 536.00 179.67 536.00 188.00
C 431.33 188.00 326.67 188.00 222.00 188.00
C 222.00 179.67 222.00 171.33 222.00 163.00
C 326.77 158.88 431.25 158.77 536.00 163.00
M 536.00 191.00 
C 536.82 197.17 547.20 192.59 552.00 194.00
C 552.00 201.00 552.00 208.00 552.00 215.00
C 437.26 213.33 320.72 213.33 206.00 215.00
C 206.00 208.00 206.00 201.00 206.00 194.00
C 210.91 192.66 220.23 197.06 222.00 191.00
C 326.08 192.67 431.95 192.67 536.00 191.00
M 551.00 218.00 
C 551.00 233.33 551.00 248.67 551.00 264.00
C 436.00 264.00 321.00 264.00 206.00 264.00
C 206.00 248.67 206.00 233.33 206.00 218.00
C 321.00 218.00 436.00 218.00 551.00 218.00
M 203.00 219.00 
C 203.00 235.33 203.00 251.67 203.00 268.00
C 206.67 268.00 210.33 268.00 214.00 268.00
C 214.00 466.00 214.00 664.00 214.00 862.00
C 204.00 862.00 194.00 862.00 184.00 862.00
C 184.00 848.66 184.00 835.34 184.00 822.00 C 184.00 808.66 184.00 795.35 184.00 782.00 C 184.00 768.65 184.00 755.38 184.00 742.00 C 184.00 728.62 184.00 715.43 184.00 702.00 C 184.00 688.57 184.00 674.43 184.00 661.00 C 184.00 647.57 184.00 634.38 184.00 621.00 C 184.00 607.62 184.00 594.37 184.00 581.00 C 184.00 567.63 184.01 554.37 184.00 541.00 C 183.99 527.63 184.02 514.41 184.00 501.00 C 183.98 487.59 184.05 473.38 184.00 460.00 C 183.95 446.62 184.12 433.26 184.00 420.00 C 183.88 406.74 184.26 393.08 184.00 380.00 C 183.74 366.92 184.57 352.75 184.00 340.00 C 183.43 327.26 185.26 312.01 184.00 300.00 C 182.74 287.99 190.43 267.19 175.00 268.00
C 175.00 254.33 175.00 240.67 175.00 227.00
C 177.86 226.65 180.39 227.27 183.00 228.00
C 184.82 225.42 183.67 221.98 184.00 219.00
C 190.33 219.00 196.67 219.00 203.00 219.00
M 574.00 219.00 
C 568.87 230.11 581.35 223.46 583.74 228.26 C 586.14 233.05 582.95 242.31 584.00 248.00 C 585.05 253.69 583.21 262.06 584.00 268.00
C 567.25 266.57 575.22 288.11 574.00 301.00 C 572.78 313.89 574.55 330.32 574.00 344.00 C 573.45 357.68 574.25 372.95 574.00 387.00 C 573.75 401.05 574.11 415.78 574.00 430.00 C 573.89 444.22 574.05 458.68 574.00 473.00 C 573.95 487.32 574.02 501.60 574.00 516.00 C 573.98 530.40 574.01 545.58 574.00 560.00 C 573.99 574.42 574.00 588.63 574.00 603.00 C 574.00 617.37 574.00 631.64 574.00 646.00 C 574.00 660.36 574.00 674.65 574.00 689.00 C 574.00 703.35 574.00 717.63 574.00 732.00 C 574.00 746.37 574.00 760.60 574.00 775.00 C 574.00 789.40 574.00 803.53 574.00 818.00 C 574.00 832.47 574.00 847.48 574.00 862.00
C 563.41 861.37 552.14 863.29 542.00 861.00
C 544.34 663.83 542.33 465.58 543.00 268.00
C 557.80 272.02 554.38 259.62 554.93 249.93 C 555.47 240.24 555.25 228.49 554.00 219.00
C 560.67 219.00 567.33 219.00 574.00 219.00
M 539.00 268.00 
C 539.00 466.00 539.00 664.00 539.00 862.00
C 534.67 862.00 530.33 862.00 526.00 862.00
C 526.00 665.67 526.00 469.33 526.00 273.00
C 427.33 273.00 328.67 273.00 230.00 273.00
C 230.00 469.34 230.00 665.66 230.00 862.00
C 211.69 866.45 217.43 847.74 217.00 835.00 C 216.57 822.26 217.20 807.25 217.00 794.00 C 216.80 780.75 217.09 766.47 217.00 753.00 C 216.91 739.53 217.04 725.57 217.00 712.00 C 216.96 698.43 217.02 684.61 217.00 671.00 C 216.98 657.39 217.01 643.61 217.00 630.00 C 216.99 616.39 217.01 602.57 217.00 589.00 C 216.99 575.43 217.01 562.57 217.00 549.00 C 216.99 535.43 217.02 521.62 217.00 508.00 C 216.98 494.38 217.03 480.63 217.00 467.00 C 216.97 453.37 217.07 439.61 217.00 426.00 C 216.93 412.39 217.16 398.56 217.00 385.00 C 216.84 371.44 217.35 357.44 217.00 344.00 C 216.65 330.56 217.59 316.97 218.00 304.00 C 218.41 291.03 217.72 279.48 217.00 268.00
C 324.34 268.00 431.66 268.00 539.00 268.00
M 522.00 277.00 
C 522.00 472.00 522.00 667.00 522.00 862.00
C 425.67 862.00 329.33 862.00 233.00 862.00
C 233.00 667.00 233.00 472.00 233.00 277.00
C 329.33 277.00 425.67 277.00 522.00 277.00
M 586.00 880.00 
C 448.00 880.00 310.00 880.00 172.00 880.00
C 179.34 859.89 201.84 867.96 221.00 867.00 C 240.16 866.04 263.89 867.40 284.00 867.00 C 304.11 866.60 326.53 867.10 347.00 867.00 C 367.47 866.90 389.52 866.87 410.00 867.00 C 430.48 867.13 452.87 866.56 473.00 867.00 C 493.13 867.44 516.79 865.95 536.00 867.00 C 555.21 868.05 578.60 859.68 586.00 880.00
M 586.00 883.00 
C 586.00 889.33 586.00 895.67 586.00 902.00
C 448.00 902.00 310.00 902.00 172.00 902.00
C 172.00 895.33 172.00 888.67 172.00 882.00
C 309.50 884.33 448.08 882.34 586.00 883.00 Z"/>
</g>
<g fill="None" fill-opacity="0.0" stroke="#1B275C" stroke-opacity="1.00" stroke-width="0.3"><path d="
M 396.00 121.00 
C 391.68 116.43 384.64 115.80 381.00 111.00
C 377.37 115.79 370.37 116.39 366.00 121.00
C 370.16 130.48 366.57 142.04 369.00 152.00
C 365.23 150.93 364.35 153.90 365.00 157.00
C 370.98 156.80 379.25 157.26 385.00 157.00 C 390.75 156.74 397.10 158.56 397.00 152.00
C 390.03 152.30 394.64 143.14 394.00 138.00 C 393.36 132.86 393.14 125.25 396.00 121.00
M 392.00 128.00 
C 392.00 134.00 392.00 140.00 392.00 146.00
C 385.12 144.41 376.88 144.42 370.00 146.00
C 368.31 140.54 371.05 134.13 370.00 128.00
C 376.84 125.22 385.14 125.23 392.00 128.00 Z"/>
</g>
<g fill="None" fill-opacity="0.0" stroke="#1B275C" stroke-opacity="0.00" stroke-width="0.3"><path d="
M 392.00 128.00 
C 385.14 125.23 376.84 125.22 370.00 128.00
C 371.05 134.13 368.31 140.54 370.00 146.00
C 376.88 144.42 385.12 144.41 392.00 146.00
C 392.00 140.00 392.00 134.00 392.00 128.00 Z"/>
</g>
<g fill="None" fill-opacity="0.0" stroke="#1B275C" stroke-opacity="1.00" stroke-width="0.3"><path d="
M 536.00 163.00 
C 431.25 158.77 326.77 158.88 222.00 163.00
C 222.00 171.33 222.00 179.67 222.00 188.00
C 326.67 188.00 431.33 188.00 536.00 188.00
C 536.00 179.67 536.00 171.33 536.00 163.00 Z"/>
</g>
<g fill="None" fill-opacity="0.0" stroke="#1B275C" stroke-opacity="1.00" stroke-width="0.3"><path d="
M 536.00 191.00 
C 431.95 192.67 326.08 192.67 222.00 191.00
C 220.23 197.06 210.91 192.66 206.00 194.00
C 206.00 201.00 206.00 208.00 206.00 215.00
C 320.72 213.33 437.26 213.33 552.00 215.00
C 552.00 208.00 552.00 201.00 552.00 194.00
C 547.20 192.59 536.82 197.17 536.00 191.00 Z"/>
</g>
<g fill="None" fill-opacity="0.0" stroke="#1B275C" stroke-opacity="1.00" stroke-width="0.3"><path d="
M 551.00 218.00 
C 436.00 218.00 321.00 218.00 206.00 218.00
C 206.00 233.33 206.00 248.67 206.00 264.00
C 321.00 264.00 436.00 264.00 551.00 264.00
C 551.00 248.67 551.00 233.33 551.00 218.00
M 528.00 261.00 
C 428.42 261.66 328.13 259.67 229.00 262.00
C 226.63 249.04 228.98 233.23 228.00 220.00
C 238.70 218.00 249.81 219.25 261.00 219.00 C 272.19 218.75 283.70 219.10 295.00 219.00 C 306.30 218.90 317.62 219.03 329.00 219.00 C 340.38 218.97 352.61 218.99 364.00 219.00 C 375.39 219.01 386.70 218.93 398.00 219.00 C 409.30 219.07 420.80 218.82 432.00 219.00 C 443.20 219.18 456.10 218.60 467.00 219.00 C 477.90 219.40 490.85 218.09 501.00 219.00 C 511.15 219.91 527.77 214.03 528.00 226.00 C 528.23 237.98 527.83 249.10 528.00 261.00 Z"/>
</g>
<g fill="None" fill-opacity="0.0" stroke="#1B275C" stroke-opacity="1.00" stroke-width="0.3"><path d="
M 203.00 219.00 
C 196.67 219.00 190.33 219.00 184.00 219.00
C 183.67 221.98 184.82 225.42 183.00 228.00
C 180.39 227.27 177.86 226.65 175.00 227.00
C 175.00 240.67 175.00 254.33 175.00 268.00
C 190.43 267.19 182.74 287.99 184.00 300.00 C 185.26 312.01 183.43 327.26 184.00 340.00 C 184.57 352.75 183.74 366.92 184.00 380.00 C 184.26 393.08 183.88 406.74 184.00 420.00 C 184.12 433.26 183.95 446.62 184.00 460.00 C 184.05 473.38 183.98 487.59 184.00 501.00 C 184.02 514.41 183.99 527.63 184.00 541.00 C 184.01 554.37 184.00 567.63 184.00 581.00 C 184.00 594.37 184.00 607.62 184.00 621.00 C 184.00 634.38 184.00 647.57 184.00 661.00 C 184.00 674.43 184.00 688.57 184.00 702.00 C 184.00 715.43 184.00 728.62 184.00 742.00 C 184.00 755.38 184.00 768.65 184.00 782.00 C 184.00 795.35 184.00 808.66 184.00 822.00 C 184.00 835.34 184.00 848.66 184.00 862.00
C 194.00 862.00 204.00 862.00 214.00 862.00
C 214.00 664.00 214.00 466.00 214.00 268.00
C 210.33 268.00 206.67 268.00 203.00 268.00
C 203.00 251.67 203.00 235.33 203.00 219.00 Z"/>
</g>
<g fill="None" fill-opacity="0.0" stroke="#1B275C" stroke-opacity="0.00" stroke-width="0.3"><path d="
M 528.00 261.00 
C 527.83 249.10 528.23 237.98 528.00 226.00 C 527.77 214.03 511.15 219.91 501.00 219.00 C 490.85 218.09 477.90 219.40 467.00 219.00 C 456.10 218.60 443.20 219.18 432.00 219.00 C 420.80 218.82 409.30 219.07 398.00 219.00 C 386.70 218.93 375.39 219.01 364.00 219.00 C 352.61 218.99 340.38 218.97 329.00 219.00 C 317.62 219.03 306.30 218.90 295.00 219.00 C 283.70 219.10 272.19 218.75 261.00 219.00 C 249.81 219.25 238.70 218.00 228.00 220.00
C 228.98 233.23 226.63 249.04 229.00 262.00
C 328.13 259.67 428.42 261.66 528.00 261.00
M 524.00 223.00 
C 524.00 234.67 524.00 246.33 524.00 258.00
C 426.67 258.00 329.33 258.00 232.00 258.00
C 232.00 246.33 232.00 234.67 232.00 223.00
C 329.33 223.00 426.67 223.00 524.00 223.00 Z"/>
</g>
<g fill="None" fill-opacity="0.0" stroke="#1B275C" stroke-opacity="1.00" stroke-width="0.3"><path d="
M 574.00 219.00 
C 567.33 219.00 560.67 219.00 554.00 219.00
C 555.25 228.49 555.47 240.24 554.93 249.93 C 554.38 259.62 557.80 272.02 543.00 268.00
C 542.33 465.58 544.34 663.83 542.00 861.00
C 552.14 863.29 563.41 861.37 574.00 862.00
C 574.00 847.48 574.00 832.47 574.00 818.00 C 574.00 803.53 574.00 789.40 574.00 775.00 C 574.00 760.60 574.00 746.37 574.00 732.00 C 574.00 717.63 574.00 703.35 574.00 689.00 C 574.00 674.65 574.00 660.36 574.00 646.00 C 574.00 631.64 574.00 617.37 574.00 603.00 C 574.00 588.63 573.99 574.42 574.00 560.00 C 574.01 545.58 573.98 530.40 574.00 516.00 C 574.02 501.60 573.95 487.32 574.00 473.00 C 574.05 458.68 573.89 444.22 574.00 430.00 C 574.11 415.78 573.75 401.05 574.00 387.00 C 574.25 372.95 573.45 357.68 574.00 344.00 C 574.55 330.32 572.78 313.89 574.00 301.00 C 575.22 288.11 567.25 266.57 584.00 268.00
C 583.21 262.06 585.05 253.69 584.00 248.00 C 582.95 242.31 586.14 233.05 583.74 228.26 C 581.35 223.46 568.87 230.11 574.00 219.00 Z"/>
</g>
<g fill="None" fill-opacity="0.0" stroke="#1B275C" stroke-opacity="1.00" stroke-width="0.3"><path d="
M 524.00 223.00 
C 426.67 223.00 329.33 223.00 232.00 223.00
C 232.00 234.67 232.00 246.33 232.00 258.00
C 329.33 258.00 426.67 258.00 524.00 258.00
C 524.00 246.33 524.00 234.67 524.00 223.00
M 365.00 239.00 
C 365.71 235.00 363.50 229.52 366.26 226.26 C 369.02 223.00 376.22 230.28 372.22 232.22 C 368.22 234.16 367.18 236.19 365.00 239.00
M 384.00 226.00 
C 387.05 229.46 387.47 238.10 380.97 238.97 C 374.48 239.85 373.19 230.40 376.00 226.00
C 378.00 228.24 375.23 238.61 381.01 236.99 C 386.79 235.37 380.64 228.86 384.00 226.00
M 388.00 239.00 
C 384.11 232.62 391.36 221.55 395.75 228.25 C 400.14 234.95 394.70 240.60 388.00 239.00
M 406.00 239.00 
C 403.28 238.83 400.33 239.61 398.00 238.00
C 399.71 234.05 396.54 229.94 399.00 226.00
C 401.73 228.30 401.22 229.63 400.80 233.25 C 400.39 236.86 404.97 236.52 406.00 239.00
M 409.00 239.00 
C 407.42 235.73 407.29 229.20 409.00 226.00
C 410.58 229.27 410.71 235.80 409.00 239.00
M 424.00 228.00 
C 421.45 229.49 415.49 226.57 415.03 232.03 C 414.56 237.48 420.35 237.70 424.00 236.00
C 422.66 242.38 412.18 238.34 412.22 232.78 C 412.27 227.21 420.41 223.44 424.00 228.00
M 239.00 242.00 
C 239.00 245.67 239.00 249.33 239.00 253.00
C 232.71 253.99 235.42 246.38 235.00 242.00 C 234.58 237.62 235.31 231.53 235.00 227.00
C 239.95 229.59 248.54 224.92 250.92 232.08 C 253.30 239.24 245.54 244.10 239.00 242.00
M 270.00 227.00 
C 286.51 230.10 282.29 256.41 264.78 253.22 C 247.26 250.03 251.44 223.51 270.00 227.00
M 300.00 253.00 
C 294.67 253.00 289.33 253.00 284.00 253.00
C 283.09 246.42 285.21 242.88 284.00 236.00 C 282.79 229.12 286.99 224.90 288.00 232.00 C 289.00 239.11 286.31 243.45 288.33 248.67 C 290.35 253.89 301.38 243.70 300.00 253.00
M 307.00 228.00 
C 302.25 235.22 311.79 251.64 302.00 253.00
C 304.22 245.83 296.91 226.74 307.00 228.00
M 334.00 233.00 
C 326.79 228.95 314.53 230.84 315.00 241.00 C 315.47 251.17 327.53 251.66 334.00 247.00
C 331.25 259.02 311.75 253.51 311.00 241.00 C 310.26 228.48 329.74 220.84 334.00 233.00
M 352.00 228.00 
C 352.46 233.51 344.40 230.01 341.00 231.00
C 336.54 242.43 352.15 233.78 352.00 242.00
C 348.33 242.00 344.67 242.00 341.00 242.00
C 338.14 252.51 347.73 248.40 353.00 250.00
C 350.71 255.90 342.10 251.77 337.00 253.00
C 337.62 244.41 335.73 235.15 338.00 227.00
C 342.20 229.10 347.39 227.50 352.00 228.00
M 456.00 240.00 
C 469.85 246.14 453.79 257.60 444.00 253.00
C 444.00 244.33 444.00 235.67 444.00 227.00
C 451.86 225.97 465.13 230.98 456.00 240.00
M 481.00 227.00 
C 497.26 230.05 492.03 257.22 474.93 253.07 C 457.82 248.93 462.51 223.53 481.00 227.00
M 504.00 237.00 
C 506.33 232.96 509.55 226.94 515.00 227.00
C 513.37 231.96 508.37 235.31 506.00 240.00
C 508.52 244.91 513.52 248.12 516.00 253.00
C 509.62 254.34 507.39 246.85 504.00 243.00
C 498.63 244.74 497.31 254.84 490.00 253.00
C 491.51 248.21 498.57 245.55 499.77 240.77 C 500.97 235.99 492.49 232.06 491.00 228.00
C 497.19 225.17 498.90 235.05 504.00 237.00
M 385.00 245.00 
C 374.09 239.51 373.74 258.02 385.00 252.00
C 383.50 258.28 373.39 254.48 373.22 248.78 C 373.06 243.07 383.07 238.77 385.00 245.00
M 398.00 255.00 
C 394.94 254.93 394.46 250.73 392.00 251.00
C 389.01 251.31 388.62 254.78 386.00 255.00
C 387.02 250.47 389.81 246.50 391.00 242.00
C 394.53 245.28 396.33 250.51 398.00 255.00
M 407.00 254.00 
C 405.23 256.03 401.52 254.53 399.00 255.00
C 399.64 250.83 397.71 245.34 400.00 242.00
C 402.20 246.77 398.69 254.61 407.00 254.00
M 415.00 255.00 
C 405.99 258.32 407.04 246.77 409.00 242.00
C 410.08 244.79 410.83 246.08 410.00 250.00 C 409.17 253.92 414.79 251.77 415.00 255.00 Z"/>
</g>
<g fill="None" fill-opacity="0.0" stroke="#1B275C" stroke-opacity="0.17" stroke-width="0.3"><path d="
M 365.00 239.00 
C 367.18 236.19 368.22 234.16 372.22 232.22 C 376.22 230.28 369.02 223.00 366.26 226.26 C 363.50 229.52 365.71 235.00 365.00 239.00 Z"/>
</g>
<g fill="None" fill-opacity="0.0" stroke="#1B275C" stroke-opacity="0.00" stroke-width="0.3"><path d="
M 384.00 226.00 
C 380.64 228.86 386.79 235.37 381.01 236.99 C 375.23 238.61 378.00 228.24 376.00 226.00
C 373.19 230.40 374.48 239.85 380.97 238.97 C 387.47 238.10 387.05 229.46 384.00 226.00 Z"/>
</g>
<g fill="None" fill-opacity="0.0" stroke="#1B275C" stroke-opacity="0.24" stroke-width="0.3"><path d="
M 388.00 239.00 
C 394.70 240.60 400.14 234.95 395.75 228.25 C 391.36 221.55 384.11 232.62 388.00 239.00 Z"/>
</g>
<g fill="None" fill-opacity="0.0" stroke="#1B275C" stroke-opacity="0.00" stroke-width="0.3"><path d="
M 406.00 239.00 
C 404.97 236.52 400.39 236.86 400.80 233.25 C 401.22 229.63 401.73 228.30 399.00 226.00
C 396.54 229.94 399.71 234.05 398.00 238.00
C 400.33 239.61 403.28 238.83 406.00 239.00 Z"/>
</g>
<g fill="None" fill-opacity="0.0" stroke="#1B275C" stroke-opacity="0.00" stroke-width="0.3"><path d="
M 409.00 239.00 
C 410.71 235.80 410.58 229.27 409.00 226.00
C 407.29 229.20 407.42 235.73 409.00 239.00 Z"/>
</g>
<g fill="None" fill-opacity="0.0" stroke="#1B275C" stroke-opacity="0.00" stroke-width="0.3"><path d="
M 424.00 228.00 
C 420.41 223.44 412.27 227.21 412.22 232.78 C 412.18 238.34 422.66 242.38 424.00 236.00
C 420.35 237.70 414.56 237.48 415.03 232.03 C 415.49 226.57 421.45 229.49 424.00 228.00 Z"/>
</g>
<g fill="None" fill-opacity="0.0" stroke="#1B275C" stroke-opacity="0.00" stroke-width="0.3"><path d="
M 239.00 242.00 
C 245.54 244.10 253.30 239.24 250.92 232.08 C 248.54 224.92 239.95 229.59 235.00 227.00
C 235.31 231.53 234.58 237.62 235.00 242.00 C 235.42 246.38 232.71 253.99 239.00 253.00
C 239.00 249.33 239.00 245.67 239.00 242.00
M 239.00 239.00 
C 236.47 234.04 241.59 227.57 246.22 231.78 C 250.86 235.98 242.30 240.22 239.00 239.00 Z"/>
</g>
<g fill="None" fill-opacity="0.0" stroke="#1B275C" stroke-opacity="0.00" stroke-width="0.3"><path d="
M 270.00 227.00 
C 251.44 223.51 247.26 250.03 264.78 253.22 C 282.29 256.41 286.51 230.10 270.00 227.00
M 271.00 231.00 
C 281.89 234.30 275.66 253.68 263.93 249.07 C 252.19 244.47 257.80 226.99 271.00 231.00 Z"/>
</g>
<g fill="None" fill-opacity="0.0" stroke="#1B275C" stroke-opacity="0.00" stroke-width="0.3"><path d="
M 300.00 253.00 
C 301.38 243.70 290.35 253.89 288.33 248.67 C 286.31 243.45 289.00 239.11 288.00 232.00 C 286.99 224.90 282.79 229.12 284.00 236.00 C 285.21 242.88 283.09 246.42 284.00 253.00
C 289.33 253.00 294.67 253.00 300.00 253.00 Z"/>
</g>
<g fill="None" fill-opacity="0.0" stroke="#1B275C" stroke-opacity="0.01" stroke-width="0.3"><path d="
M 307.00 228.00 
C 296.91 226.74 304.22 245.83 302.00 253.00
C 311.79 251.64 302.25 235.22 307.00 228.00 Z"/>
</g>
<g fill="None" fill-opacity="0.0" stroke="#1B275C" stroke-opacity="0.00" stroke-width="0.3"><path d="
M 334.00 233.00 
C 329.74 220.84 310.26 228.48 311.00 241.00 C 311.75 253.51 331.25 259.02 334.00 247.00
C 327.53 251.66 315.47 251.17 315.00 241.00 C 314.53 230.84 326.79 228.95 334.00 233.00 Z"/>
</g>
<g fill="None" fill-opacity="0.0" stroke="#1B275C" stroke-opacity="0.00" stroke-width="0.3"><path d="
M 352.00 228.00 
C 347.39 227.50 342.20 229.10 338.00 227.00
C 335.73 235.15 337.62 244.41 337.00 253.00
C 342.10 251.77 350.71 255.90 353.00 250.00
C 347.73 248.40 338.14 252.51 341.00 242.00
C 344.67 242.00 348.33 242.00 352.00 242.00
C 352.15 233.78 336.54 242.43 341.00 231.00
C 344.40 230.01 352.46 233.51 352.00 228.00 Z"/>
</g>
<g fill="None" fill-opacity="0.0" stroke="#1B275C" stroke-opacity="0.00" stroke-width="0.3"><path d="
M 456.00 240.00 
C 465.13 230.98 451.86 225.97 444.00 227.00
C 444.00 235.67 444.00 244.33 444.00 253.00
C 453.79 257.60 469.85 246.14 456.00 240.00
M 448.00 238.00 
C 445.53 221.95 464.10 239.66 448.00 238.00
M 448.00 250.00 
C 444.71 243.71 452.29 238.84 456.69 243.31 C 461.10 247.77 451.09 251.14 448.00 250.00 Z"/>
</g>
<g fill="None" fill-opacity="0.0" stroke="#1B275C" stroke-opacity="0.00" stroke-width="0.3"><path d="
M 481.00 227.00 
C 462.51 223.53 457.82 248.93 474.93 253.07 C 492.03 257.22 497.26 230.05 481.00 227.00
M 482.00 231.00 
C 492.77 234.98 485.33 254.38 473.93 249.07 C 462.52 243.77 469.78 226.49 482.00 231.00 Z"/>
</g>
<g fill="None" fill-opacity="0.0" stroke="#1B275C" stroke-opacity="0.00" stroke-width="0.3"><path d="
M 504.00 237.00 
C 498.90 235.05 497.19 225.17 491.00 228.00
C 492.49 232.06 500.97 235.99 499.77 240.77 C 498.57 245.55 491.51 248.21 490.00 253.00
C 497.31 254.84 498.63 244.74 504.00 243.00
C 507.39 246.85 509.62 254.34 516.00 253.00
C 513.52 248.12 508.52 244.91 506.00 240.00
C 508.37 235.31 513.37 231.96 515.00 227.00
C 509.55 226.94 506.33 232.96 504.00 237.00 Z"/>
</g>
<g fill="None" fill-opacity="0.0" stroke="#1B275C" stroke-opacity="1.00" stroke-width="0.3"><path d="
M 239.00 239.00 
C 242.30 240.22 250.86 235.98 246.22 231.78 C 241.59 227.57 236.47 234.04 239.00 239.00 Z"/>
</g>
<g fill="None" fill-opacity="0.0" stroke="#1B275C" stroke-opacity="1.00" stroke-width="0.3"><path d="
M 271.00 231.00 
C 257.80 226.99 252.19 244.47 263.93 249.07 C 275.66 253.68 281.89 234.30 271.00 231.00 Z"/>
</g>
<g fill="None" fill-opacity="0.0" stroke="#1B275C" stroke-opacity="1.00" stroke-width="0.3"><path d="
M 448.00 238.00 
C 464.10 239.66 445.53 221.95 448.00 238.00 Z"/>
</g>
<g fill="None" fill-opacity="0.0" stroke="#1B275C" stroke-opacity="1.00" stroke-width="0.3"><path d="
M 482.00 231.00 
C 469.78 226.49 462.52 243.77 473.93 249.07 C 485.33 254.38 492.77 234.98 482.00 231.00 Z"/>
</g>
<g fill="None" fill-opacity="0.0" stroke="#1B275C" stroke-opacity="0.00" stroke-width="0.3"><path d="
M 385.00 245.00 
C 383.07 238.77 373.06 243.07 373.22 248.78 C 373.39 254.48 383.50 258.28 385.00 252.00
C 373.74 258.02 374.09 239.51 385.00 245.00 Z"/>
</g>
<g fill="None" fill-opacity="0.0" stroke="#1B275C" stroke-opacity="0.09" stroke-width="0.3"><path d="
M 398.00 255.00 
C 396.33 250.51 394.53 245.28 391.00 242.00
C 389.81 246.50 387.02 250.47 386.00 255.00
C 388.62 254.78 389.01 251.31 392.00 251.00
C 394.46 250.73 394.94 254.93 398.00 255.00 Z"/>
</g>
<g fill="None" fill-opacity="0.0" stroke="#1B275C" stroke-opacity="0.00" stroke-width="0.3"><path d="
M 407.00 254.00 
C 398.69 254.61 402.20 246.77 400.00 242.00
C 397.71 245.34 399.64 250.83 399.00 255.00
C 401.52 254.53 405.23 256.03 407.00 254.00 Z"/>
</g>
<g fill="None" fill-opacity="0.0" stroke="#1B275C" stroke-opacity="0.00" stroke-width="0.3"><path d="
M 415.00 255.00 
C 414.79 251.77 409.17 253.92 410.00 250.00 C 410.83 246.08 410.08 244.79 409.00 242.00
C 407.04 246.77 405.99 258.32 415.00 255.00 Z"/>
</g>
<g fill="None" fill-opacity="0.0" stroke="#1B275C" stroke-opacity="1.00" stroke-width="0.3"><path d="
M 448.00 250.00 
C 451.09 251.14 461.10 247.77 456.69 243.31 C 452.29 238.84 444.71 243.71 448.00 250.00 Z"/>
</g>
<g fill="None" fill-opacity="0.0" stroke="#1B275C" stroke-opacity="1.00" stroke-width="0.3"><path d="
M 539.00 268.00 
C 431.66 268.00 324.34 268.00 217.00 268.00
C 217.72 279.48 218.41 291.03 218.00 304.00 C 217.59 316.97 216.65 330.56 217.00 344.00 C 217.35 357.44 216.84 371.44 217.00 385.00 C 217.16 398.56 216.93 412.39 217.00 426.00 C 217.07 439.61 216.97 453.37 217.00 467.00 C 217.03 480.63 216.98 494.38 217.00 508.00 C 217.02 521.62 216.99 535.43 217.00 549.00 C 217.01 562.57 216.99 575.43 217.00 589.00 C 217.01 602.57 216.99 616.39 217.00 630.00 C 217.01 643.61 216.98 657.39 217.00 671.00 C 217.02 684.61 216.96 698.43 217.00 712.00 C 217.04 725.57 216.91 739.53 217.00 753.00 C 217.09 766.47 216.80 780.75 217.00 794.00 C 217.20 807.25 216.57 822.26 217.00 835.00 C 217.43 847.74 211.69 866.45 230.00 862.00
C 230.00 665.66 230.00 469.34 230.00 273.00
C 328.67 273.00 427.33 273.00 526.00 273.00
C 526.00 469.33 526.00 665.67 526.00 862.00
C 530.33 862.00 534.67 862.00 539.00 862.00
C 539.00 664.00 539.00 466.00 539.00 268.00 Z"/>
</g>
<g fill="None" fill-opacity="0.0" stroke="#1B275C" stroke-opacity="1.00" stroke-width="0.3"><path d="
M 522.00 277.00 
C 425.67 277.00 329.33 277.00 233.00 277.00
C 233.00 472.00 233.00 667.00 233.00 862.00
C 329.33 862.00 425.67 862.00 522.00 862.00
C 522.00 667.00 522.00 472.00 522.00 277.00
M 281.00 294.00 
C 281.00 312.33 281.00 330.67 281.00 349.00
C 270.67 349.00 260.33 349.00 250.00 349.00
C 250.00 330.67 250.00 312.33 250.00 294.00
C 260.33 294.00 270.67 294.00 281.00 294.00
M 319.00 294.00 
C 319.00 312.33 319.00 330.67 319.00 349.00
C 305.96 348.63 285.50 354.01 288.00 337.00 C 290.50 319.99 286.13 310.34 288.00 294.00
C 298.33 294.00 308.67 294.00 319.00 294.00
M 357.00 294.00 
C 357.00 312.33 357.00 330.67 357.00 349.00
C 343.96 348.63 323.50 354.01 326.00 337.00 C 328.50 319.99 324.13 310.34 326.00 294.00
C 336.33 294.00 346.67 294.00 357.00 294.00
M 403.00 349.00 
C 403.00 330.67 403.00 312.33 403.00 294.00
C 413.39 296.36 434.26 287.53 434.00 302.00 C 433.74 316.47 433.73 326.53 434.00 341.00 C 434.27 355.47 413.38 346.64 403.00 349.00
M 472.00 294.00 
C 472.00 312.33 472.00 330.67 472.00 349.00
C 461.67 349.00 451.33 349.00 441.00 349.00
C 441.00 330.67 441.00 312.33 441.00 294.00
C 451.33 294.00 461.67 294.00 472.00 294.00
M 510.00 294.00 
C 510.00 312.33 510.00 330.67 510.00 349.00
C 499.61 346.64 478.74 355.47 479.00 341.00 C 479.26 326.53 479.27 316.47 479.00 302.00 C 478.73 287.53 499.62 296.36 510.00 294.00
M 281.00 356.00 
C 281.00 374.33 281.00 392.67 281.00 411.00
C 270.67 411.00 260.33 411.00 250.00 411.00
C 248.12 394.67 252.51 385.00 250.00 368.00 C 247.49 351.00 267.96 356.37 281.00 356.00
M 319.00 411.00 
C 308.67 411.00 298.33 411.00 288.00 411.00
C 287.49 402.57 288.68 396.69 288.00 388.00 C 287.32 379.31 289.26 373.44 288.00 364.00 C 286.74 354.56 295.07 355.98 303.00 356.00 C 310.93 356.02 320.42 354.25 319.00 364.00 C 317.58 373.75 319.71 378.18 319.00 387.00 C 318.29 395.82 319.54 402.38 319.00 411.00
M 357.00 356.00 
C 357.00 374.33 357.00 392.67 357.00 411.00
C 346.61 408.64 325.74 417.47 326.00 403.00 C 326.26 388.53 326.27 378.47 326.00 364.00 C 325.73 349.53 346.62 358.36 357.00 356.00
M 434.00 357.00 
C 434.00 375.00 434.00 393.00 434.00 411.00
C 423.67 411.00 413.33 411.00 403.00 411.00
C 403.00 392.67 403.00 374.33 403.00 356.00
C 413.32 356.43 424.08 355.00 434.00 357.00
M 472.00 357.00 
C 472.00 375.00 472.00 393.00 472.00 411.00
C 461.67 411.00 451.33 411.00 441.00 411.00
C 439.03 394.79 443.62 384.84 441.00 368.00 C 438.38 351.16 459.45 355.49 472.00 357.00
M 510.00 356.00 
C 510.00 374.33 510.00 392.67 510.00 411.00
C 499.61 408.64 478.74 417.47 479.00 403.00 C 479.26 388.53 479.27 378.47 479.00 364.00 C 478.73 349.53 499.62 358.36 510.00 356.00
M 510.00 436.00 
C 510.00 477.00 510.00 518.00 510.00 559.00
C 474.84 556.67 438.58 558.66 403.00 558.00
C 403.00 517.33 403.00 476.67 403.00 436.00
C 438.67 436.00 474.33 436.00 510.00 436.00
M 304.00 463.00 
C 308.79 470.19 309.02 470.11 304.00 477.00
C 302.32 479.31 301.09 482.71 299.00 485.00
C 296.60 483.40 295.38 480.48 294.00 478.00
C 293.73 477.53 293.32 476.53 293.00 476.00
C 291.79 474.02 289.06 472.81 289.00 470.00
C 288.97 468.42 289.31 468.98 290.00 468.00
C 292.57 464.35 295.04 460.08 298.00 457.00
C 298.25 456.74 298.75 455.92 299.00 456.00
C 301.49 456.83 302.68 461.02 304.00 463.00
M 317.00 482.00 
C 319.47 483.89 325.60 492.72 326.00 496.00
C 326.04 496.31 325.17 496.73 325.00 497.00
C 322.12 501.53 319.06 506.18 317.00 511.00
C 313.68 510.69 311.86 506.73 311.00 504.00
C 310.90 503.52 311.00 503.00 311.00 503.00
C 304.43 496.71 307.12 495.20 311.00 489.00
C 313.09 485.66 313.59 479.38 317.00 482.00
M 298.00 507.00 
C 299.73 510.00 305.12 515.32 300.69 518.70 C 296.27 522.07 297.63 528.85 293.00 531.00
C 293.02 530.95 292.26 530.22 292.00 530.00
C 290.05 528.32 289.52 526.18 288.00 524.00
C 287.41 523.15 287.42 523.11 287.00 522.00
C 286.01 519.37 283.10 516.88 283.00 514.00
C 282.99 513.67 283.91 513.25 284.00 513.00
C 284.80 510.76 285.58 509.01 287.00 507.00
C 287.21 506.70 287.87 506.27 288.00 506.00
C 289.04 503.88 290.38 498.84 293.00 498.00
C 294.72 497.45 297.47 504.56 298.00 507.00
M 357.00 577.00 
C 357.00 617.67 357.00 658.33 357.00 699.00
C 321.00 699.00 285.00 699.00 249.00 699.00
C 249.00 658.34 249.00 617.66 249.00 577.00
C 285.00 577.00 321.00 577.00 357.00 577.00
M 510.00 577.00 
C 510.00 617.67 510.00 658.33 510.00 699.00
C 474.33 699.00 438.67 699.00 403.00 699.00
C 403.00 658.34 403.00 617.66 403.00 577.00
C 438.67 577.00 474.33 577.00 510.00 577.00
M 357.00 721.00 
C 357.00 761.67 357.00 802.33 357.00 843.00
C 321.00 843.00 285.00 843.00 249.00 843.00
C 249.00 802.33 249.00 761.67 249.00 721.00
C 285.00 721.00 321.00 721.00 357.00 721.00
M 510.00 721.00 
C 510.00 761.67 510.00 802.33 510.00 843.00
C 474.33 843.00 438.67 843.00 403.00 843.00
C 403.00 802.33 403.00 761.67 403.00 721.00
C 438.67 721.00 474.33 721.00 510.00 721.00 Z"/>
</g>
<g fill="None" fill-opacity="0.0" stroke="#1B275C" stroke-opacity="0.00" stroke-width="0.3"><path d="
M 281.00 294.00 
C 270.67 294.00 260.33 294.00 250.00 294.00
C 250.00 312.33 250.00 330.67 250.00 349.00
C 260.33 349.00 270.67 349.00 281.00 349.00
C 281.00 330.67 281.00 312.33 281.00 294.00 Z"/>
</g>
<g fill="None" fill-opacity="0.0" stroke="#1B275C" stroke-opacity="0.00" stroke-width="0.3"><path d="
M 319.00 294.00 
C 308.67 294.00 298.33 294.00 288.00 294.00
C 286.13 310.34 290.50 319.99 288.00 337.00 C 285.50 354.01 305.96 348.63 319.00 349.00
C 319.00 330.67 319.00 312.33 319.00 294.00 Z"/>
</g>
<g fill="None" fill-opacity="0.0" stroke="#1B275C" stroke-opacity="0.00" stroke-width="0.3"><path d="
M 357.00 294.00 
C 346.67 294.00 336.33 294.00 326.00 294.00
C 324.13 310.34 328.50 319.99 326.00 337.00 C 323.50 354.01 343.96 348.63 357.00 349.00
C 357.00 330.67 357.00 312.33 357.00 294.00 Z"/>
</g>
<g fill="None" fill-opacity="0.0" stroke="#1B275C" stroke-opacity="0.00" stroke-width="0.3"><path d="
M 403.00 349.00 
C 413.38 346.64 434.27 355.47 434.00 341.00 C 433.73 326.53 433.74 316.47 434.00 302.00 C 434.26 287.53 413.39 296.36 403.00 294.00
C 403.00 312.33 403.00 330.67 403.00 349.00 Z"/>
</g>
<g fill="None" fill-opacity="0.0" stroke="#1B275C" stroke-opacity="0.00" stroke-width="0.3"><path d="
M 472.00 294.00 
C 461.67 294.00 451.33 294.00 441.00 294.00
C 441.00 312.33 441.00 330.67 441.00 349.00
C 451.33 349.00 461.67 349.00 472.00 349.00
C 472.00 330.67 472.00 312.33 472.00 294.00 Z"/>
</g>
<g fill="None" fill-opacity="0.0" stroke="#1B275C" stroke-opacity="0.00" stroke-width="0.3"><path d="
M 510.00 294.00 
C 499.62 296.36 478.73 287.53 479.00 302.00 C 479.27 316.47 479.26 326.53 479.00 341.00 C 478.74 355.47 499.61 346.64 510.00 349.00
C 510.00 330.67 510.00 312.33 510.00 294.00 Z"/>
</g>
<g fill="None" fill-opacity="0.0" stroke="#1B275C" stroke-opacity="0.00" stroke-width="0.3"><path d="
M 281.00 356.00 
C 267.96 356.37 247.49 351.00 250.00 368.00 C 252.51 385.00 248.12 394.67 250.00 411.00
C 260.33 411.00 270.67 411.00 281.00 411.00
C 281.00 392.67 281.00 374.33 281.00 356.00 Z"/>
</g>
<g fill="None" fill-opacity="0.0" stroke="#1B275C" stroke-opacity="0.00" stroke-width="0.3"><path d="
M 319.00 411.00 
C 319.54 402.38 318.29 395.82 319.00 387.00 C 319.71 378.18 317.58 373.75 319.00 364.00 C 320.42 354.25 310.93 356.02 303.00 356.00 C 295.07 355.98 286.74 354.56 288.00 364.00 C 289.26 373.44 287.32 379.31 288.00 388.00 C 288.68 396.69 287.49 402.57 288.00 411.00
C 298.33 411.00 308.67 411.00 319.00 411.00 Z"/>
</g>
<g fill="None" fill-opacity="0.0" stroke="#1B275C" stroke-opacity="0.00" stroke-width="0.3"><path d="
M 357.00 356.00 
C 346.62 358.36 325.73 349.53 326.00 364.00 C 326.27 378.47 326.26 388.53 326.00 403.00 C 325.74 417.47 346.61 408.64 357.00 411.00
C 357.00 392.67 357.00 374.33 357.00 356.00 Z"/>
</g>
<g fill="None" fill-opacity="0.0" stroke="#1B275C" stroke-opacity="0.00" stroke-width="0.3"><path d="
M 434.00 357.00 
C 424.08 355.00 413.32 356.43 403.00 356.00
C 403.00 374.33 403.00 392.67 403.00 411.00
C 413.33 411.00 423.67 411.00 434.00 411.00
C 434.00 393.00 434.00 375.00 434.00 357.00 Z"/>
</g>
<g fill="None" fill-opacity="0.0" stroke="#1B275C" stroke-opacity="0.00" stroke-width="0.3"><path d="
M 472.00 357.00 
C 459.45 355.49 438.38 351.16 441.00 368.00 C 443.62 384.84 439.03 394.79 441.00 411.00
C 451.33 411.00 461.67 411.00 472.00 411.00
C 472.00 393.00 472.00 375.00 472.00 357.00 Z"/>
</g>
<g fill="None" fill-opacity="0.0" stroke="#1B275C" stroke-opacity="0.00" stroke-width="0.3"><path d="
M 510.00 356.00 
C 499.62 358.36 478.73 349.53 479.00 364.00 C 479.27 378.47 479.26 388.53 479.00 403.00 C 478.74 417.47 499.61 408.64 510.00 411.00
C 510.00 392.67 510.00 374.33 510.00 356.00 Z"/>
</g>
<g fill="None" fill-opacity="0.0" stroke="#1B275C" stroke-opacity="0.00" stroke-width="0.3"><path d="
M 510.00 436.00 
C 474.33 436.00 438.67 436.00 403.00 436.00
C 403.00 476.67 403.00 517.33 403.00 558.00
C 438.58 558.66 474.84 556.67 510.00 559.00
C 510.00 518.00 510.00 477.00 510.00 436.00
M 507.00 440.00 
C 507.00 478.33 507.00 516.67 507.00 555.00
C 473.33 555.00 439.67 555.00 406.00 555.00
C 406.16 516.62 405.40 478.02 407.00 440.00
C 440.33 440.00 473.67 440.00 507.00 440.00 Z"/>
</g>
<g fill="None" fill-opacity="0.0" stroke="#1B275C" stroke-opacity="1.00" stroke-width="0.3"><path d="
M 507.00 440.00 
C 473.67 440.00 440.33 440.00 407.00 440.00
C 405.40 478.02 406.16 516.62 406.00 555.00
C 439.67 555.00 473.33 555.00 507.00 555.00
C 507.00 516.67 507.00 478.33 507.00 440.00 Z"/>
</g>
<g fill="None" fill-opacity="0.0" stroke="#3182FD" stroke-opacity="1.00" stroke-width="0.3"><path d="
M 298.00 457.00 
C 297.85 459.32 298.11 461.67 298.00 464.00
C 292.78 463.61 293.91 464.10 295.00 468.00
C 293.33 468.00 291.67 468.00 290.00 468.00
C 289.31 468.98 288.97 468.42 289.00 470.00
C 289.43 470.31 293.94 467.76 295.00 469.00
C 295.08 471.44 294.65 474.40 293.00 476.00
C 293.32 476.53 293.73 477.53 294.00 478.00
C 295.69 477.49 295.02 470.55 299.00 474.00
C 297.82 477.08 297.91 480.58 298.00 484.00
C 299.03 479.42 299.94 474.60 303.00 471.00
C 304.87 472.14 303.61 475.13 304.00 477.00
C 309.02 470.11 308.79 470.19 304.00 463.00
C 302.52 462.33 300.69 465.03 299.00 464.00
C 299.00 461.33 299.00 458.67 299.00 456.00
C 298.75 455.92 298.25 456.74 298.00 457.00
M 300.00 465.00 
C 303.15 465.69 303.60 473.63 298.97 472.97 C 294.34 472.32 295.33 463.97 300.00 465.00 Z"/>
</g>
<g fill="None" fill-opacity="0.0" stroke="#08A3F2" stroke-opacity="1.00" stroke-width="0.3"><path d="
M 304.00 463.00 
C 302.68 461.02 301.49 456.83 299.00 456.00
C 299.00 458.67 299.00 461.33 299.00 464.00
C 300.69 465.03 302.52 462.33 304.00 463.00 Z"/>
</g>
<g fill="None" fill-opacity="0.0" stroke="#08A3F2" stroke-opacity="1.00" stroke-width="0.3"><path d="
M 290.00 468.00 
C 291.67 468.00 293.33 468.00 295.00 468.00
C 293.91 464.10 292.78 463.61 298.00 464.00
C 298.11 461.67 297.85 459.32 298.00 457.00
C 295.04 460.08 292.57 464.35 290.00 468.00 Z"/>
</g>
<g fill="None" fill-opacity="0.0" stroke="#08A3F2" stroke-opacity="1.00" stroke-width="0.3"><path d="
M 300.00 465.00 
C 295.33 463.97 294.34 472.32 298.97 472.97 C 303.60 473.63 303.15 465.69 300.00 465.00 Z"/>
</g>
<g fill="None" fill-opacity="0.0" stroke="#08A3F2" stroke-opacity="1.00" stroke-width="0.3"><path d="
M 289.00 470.00 
C 289.06 472.81 291.79 474.02 293.00 476.00
C 294.65 474.40 295.08 471.44 295.00 469.00
C 293.94 467.76 289.43 470.31 289.00 470.00 Z"/>
</g>
<g fill="None" fill-opacity="0.0" stroke="#08A3F2" stroke-opacity="1.00" stroke-width="0.3"><path d="
M 294.00 478.00 
C 295.38 480.48 296.60 483.40 299.00 485.00
C 301.09 482.71 302.32 479.31 304.00 477.00
C 303.61 475.13 304.87 472.14 303.00 471.00
C 299.94 474.60 299.03 479.42 298.00 484.00
C 297.91 480.58 297.82 477.08 299.00 474.00
C 295.02 470.55 295.69 477.49 294.00 478.00 Z"/>
</g>
<g fill="None" fill-opacity="0.0" stroke="#3182FD" stroke-opacity="1.00" stroke-width="0.3"><path d="
M 311.00 489.00 
C 310.66 491.41 313.37 494.30 309.00 495.00
C 313.93 494.55 312.67 500.39 311.00 503.00
C 311.00 503.00 310.90 503.52 311.00 504.00
C 311.79 502.35 313.77 500.41 316.00 501.00
C 314.18 503.58 315.33 507.02 315.00 510.00
C 314.89 504.48 319.43 501.18 320.00 496.00
C 321.83 495.77 323.47 496.07 325.00 497.00
C 325.17 496.73 326.04 496.31 326.00 496.00
C 323.40 493.04 322.23 494.15 319.22 490.78 C 316.22 487.40 317.90 485.32 317.00 482.00
C 313.59 479.38 313.09 485.66 311.00 489.00
M 315.00 489.00 
C 318.82 489.50 321.66 499.27 316.92 499.92 C 312.17 500.56 312.50 491.29 315.00 489.00 Z"/>
</g>
<g fill="None" fill-opacity="0.0" stroke="#08A3F2" stroke-opacity="1.00" stroke-width="0.3"><path d="
M 326.00 496.00 
C 325.60 492.72 319.47 483.89 317.00 482.00
C 317.90 485.32 316.22 487.40 319.22 490.78 C 322.23 494.15 323.40 493.04 326.00 496.00 Z"/>
</g>
<g fill="None" fill-opacity="0.0" stroke="#08A3F2" stroke-opacity="1.00" stroke-width="0.3"><path d="
M 311.00 503.00 
C 312.67 500.39 313.93 494.55 309.00 495.00
C 313.37 494.30 310.66 491.41 311.00 489.00
C 307.12 495.20 304.43 496.71 311.00 503.00 Z"/>
</g>
<g fill="None" fill-opacity="0.0" stroke="#08A3F2" stroke-opacity="1.00" stroke-width="0.3"><path d="
M 315.00 489.00 
C 312.50 491.29 312.17 500.56 316.92 499.92 C 321.66 499.27 318.82 489.50 315.00 489.00 Z"/>
</g>
<g fill="None" fill-opacity="0.0" stroke="#08A3F2" stroke-opacity="1.00" stroke-width="0.3"><path d="
M 311.00 504.00 
C 311.86 506.73 313.68 510.69 317.00 511.00
C 319.06 506.18 322.12 501.53 325.00 497.00
C 323.47 496.07 321.83 495.77 320.00 496.00
C 319.43 501.18 314.89 504.48 315.00 510.00
C 315.33 507.02 314.18 503.58 316.00 501.00
C 313.77 500.41 311.79 502.35 311.00 504.00 Z"/>
</g>
<g fill="None" fill-opacity="0.0" stroke="#3182FD" stroke-opacity="1.00" stroke-width="0.3"><path d="
M 293.00 498.00 
C 291.68 500.69 293.99 505.15 293.00 508.00
C 290.81 508.76 289.68 506.70 288.00 506.00
C 287.87 506.27 287.21 506.70 287.00 507.00
C 289.58 509.75 288.54 514.53 284.00 513.00
C 283.91 513.25 282.99 513.67 283.00 514.00
C 284.53 515.00 286.16 515.15 288.00 515.00
C 287.67 517.39 290.68 520.86 287.00 522.00
C 287.42 523.11 287.41 523.15 288.00 524.00
C 289.70 523.80 289.84 518.00 293.00 520.00
C 291.82 523.08 291.91 526.58 292.00 530.00
C 292.26 530.22 293.02 530.95 293.00 531.00
C 294.52 526.26 292.05 516.52 300.00 519.00
C 298.19 515.76 298.10 510.06 298.00 507.00
C 297.47 504.56 294.72 497.45 293.00 498.00
M 296.00 509.00 
C 300.39 511.18 296.56 521.88 291.33 518.67 C 286.09 515.46 289.78 505.91 296.00 509.00 Z"/>
</g>
<g fill="None" fill-opacity="0.0" stroke="#08A3F2" stroke-opacity="1.00" stroke-width="0.3"><path d="
M 288.00 506.00 
C 289.68 506.70 290.81 508.76 293.00 508.00
C 293.99 505.15 291.68 500.69 293.00 498.00
C 290.38 498.84 289.04 503.88 288.00 506.00 Z"/>
</g>
<g fill="None" fill-opacity="0.0" stroke="#08A3F2" stroke-opacity="1.00" stroke-width="0.3"><path d="
M 284.00 513.00 
C 288.54 514.53 289.58 509.75 287.00 507.00
C 285.58 509.01 284.80 510.76 284.00 513.00 Z"/>
</g>
<g fill="None" fill-opacity="0.0" stroke="#08A3F2" stroke-opacity="1.00" stroke-width="0.3"><path d="
M 293.00 531.00 
C 297.63 528.85 296.27 522.07 300.69 518.70 C 305.12 515.32 299.73 510.00 298.00 507.00
C 298.10 510.06 298.19 515.76 300.00 519.00
C 292.05 516.52 294.52 526.26 293.00 531.00 Z"/>
</g>
<g fill="None" fill-opacity="0.0" stroke="#08A3F2" stroke-opacity="1.00" stroke-width="0.3"><path d="
M 296.00 509.00 
C 289.78 505.91 286.09 515.46 291.33 518.67 C 296.56 521.88 300.39 511.18 296.00 509.00 Z"/>
</g>
<g fill="None" fill-opacity="0.0" stroke="#08A3F2" stroke-opacity="1.00" stroke-width="0.3"><path d="
M 287.00 522.00 
C 290.68 520.86 287.67 517.39 288.00 515.00
C 286.16 515.15 284.53 515.00 283.00 514.00
C 283.10 516.88 286.01 519.37 287.00 522.00 Z"/>
</g>
<g fill="None" fill-opacity="0.0" stroke="#08A3F2" stroke-opacity="1.00" stroke-width="0.3"><path d="
M 288.00 524.00 
C 289.52 526.18 290.05 528.32 292.00 530.00
C 291.91 526.58 291.82 523.08 293.00 520.00
C 289.84 518.00 289.70 523.80 288.00 524.00 Z"/>
</g>
<g fill="None" fill-opacity="0.0" stroke="#1B275C" stroke-opacity="0.00" stroke-width="0.3"><path d="
M 357.00 577.00 
C 321.00 577.00 285.00 577.00 249.00 577.00
C 249.00 617.66 249.00 658.34 249.00 699.00
C 285.00 699.00 321.00 699.00 357.00 699.00
C 357.00 658.33 357.00 617.67 357.00 577.00
M 354.00 581.00 
C 354.00 619.00 354.00 657.00 354.00 695.00
C 320.33 695.00 286.67 695.00 253.00 695.00
C 253.00 657.00 253.00 619.00 253.00 581.00
C 286.67 581.00 320.33 581.00 354.00 581.00 Z"/>
</g>
<g fill="None" fill-opacity="0.0" stroke="#1B275C" stroke-opacity="0.00" stroke-width="0.3"><path d="
M 510.00 577.00 
C 474.33 577.00 438.67 577.00 403.00 577.00
C 403.00 617.66 403.00 658.34 403.00 699.00
C 438.67 699.00 474.33 699.00 510.00 699.00
C 510.00 658.33 510.00 617.67 510.00 577.00
M 507.00 581.00 
C 507.00 619.00 507.00 657.00 507.00 695.00
C 473.33 695.00 439.67 695.00 406.00 695.00
C 406.00 657.00 406.00 619.00 406.00 581.00
C 439.67 581.00 473.33 581.00 507.00 581.00 Z"/>
</g>
<g fill="None" fill-opacity="0.0" stroke="#1B275C" stroke-opacity="1.00" stroke-width="0.3"><path d="
M 354.00 581.00 
C 320.33 581.00 286.67 581.00 253.00 581.00
C 253.00 619.00 253.00 657.00 253.00 695.00
C 286.67 695.00 320.33 695.00 354.00 695.00
C 354.00 657.00 354.00 619.00 354.00 581.00 Z"/>
</g>
<g fill="None" fill-opacity="0.0" stroke="#1B275C" stroke-opacity="1.00" stroke-width="0.3"><path d="
M 507.00 581.00 
C 473.33 581.00 439.67 581.00 406.00 581.00
C 406.00 619.00 406.00 657.00 406.00 695.00
C 439.67 695.00 473.33 695.00 507.00 695.00
C 507.00 657.00 507.00 619.00 507.00 581.00 Z"/>
</g>
<g fill="None" fill-opacity="0.0" stroke="#1B275C" stroke-opacity="0.00" stroke-width="0.3"><path d="
M 357.00 721.00 
C 321.00 721.00 285.00 721.00 249.00 721.00
C 249.00 761.67 249.00 802.33 249.00 843.00
C 285.00 843.00 321.00 843.00 357.00 843.00
C 357.00 802.33 357.00 761.67 357.00 721.00
M 354.00 725.00 
C 354.00 763.00 354.00 801.00 354.00 839.00
C 320.67 839.00 287.33 839.00 254.00 839.00
C 254.00 801.00 254.00 763.00 254.00 725.00
C 287.33 725.00 320.67 725.00 354.00 725.00 Z"/>
</g>
<g fill="None" fill-opacity="0.0" stroke="#1B275C" stroke-opacity="0.00" stroke-width="0.3"><path d="
M 510.00 721.00 
C 474.33 721.00 438.67 721.00 403.00 721.00
C 403.00 761.67 403.00 802.33 403.00 843.00
C 438.67 843.00 474.33 843.00 510.00 843.00
C 510.00 802.33 510.00 761.67 510.00 721.00
M 507.00 725.00 
C 507.00 763.00 507.00 801.00 507.00 839.00
C 473.33 839.00 439.67 839.00 406.00 839.00
C 406.00 801.00 406.00 763.00 406.00 725.00
C 439.67 725.00 473.33 725.00 507.00 725.00 Z"/>
</g>
<g fill="None" fill-opacity="0.0" stroke="#1B275C" stroke-opacity="1.00" stroke-width="0.3"><path d="
M 354.00 725.00 
C 320.67 725.00 287.33 725.00 254.00 725.00
C 254.00 763.00 254.00 801.00 254.00 839.00
C 287.33 839.00 320.67 839.00 354.00 839.00
C 354.00 801.00 354.00 763.00 354.00 725.00 Z"/>
</g>
<g fill="None" fill-opacity="0.0" stroke="#1B275C" stroke-opacity="1.00" stroke-width="0.3"><path d="
M 507.00 725.00 
C 473.33 725.00 439.67 725.00 406.00 725.00
C 406.00 763.00 406.00 801.00 406.00 839.00
C 439.67 839.00 473.33 839.00 507.00 839.00
C 507.00 801.00 507.00 763.00 507.00 725.00 Z"/>
</g>
<g fill="None" fill-opacity="0.0" stroke="#1B275C" stroke-opacity="1.00" stroke-width="0.3"><path d="
M 586.00 880.00 
C 578.60 859.68 555.21 868.05 536.00 867.00 C 516.79 865.95 493.13 867.44 473.00 867.00 C 452.87 866.56 430.48 867.13 410.00 867.00 C 389.52 866.87 367.47 866.90 347.00 867.00 C 326.53 867.10 304.11 866.60 284.00 867.00 C 263.89 867.40 240.16 866.04 221.00 867.00 C 201.84 867.96 179.34 859.89 172.00 880.00
C 310.00 880.00 448.00 880.00 586.00 880.00 Z"/>
</g>
<g fill="None" fill-opacity="0.0" stroke="#1B275C" stroke-opacity="1.00" stroke-width="0.3"><path d="
M 586.00 883.00 
C 448.08 882.34 309.50 884.33 172.00 882.00
C 172.00 888.67 172.00 895.33 172.00 902.00
C 310.00 902.00 448.00 902.00 586.00 902.00
C 586.00 895.67 586.00 889.33 586.00 883.00 Z"/>
</g>
<g fill="#1B275C" fill-opacity="0.00" stroke="None">
<path d="
M 0.00 1000.00 
L 800.00 1000.00
L 800.00 0.00
L 0.00 0.00
L 0.00 1000.00
M 396.00 121.00 
C 393.14 125.25 393.36 132.86 394.00 138.00 C 394.64 143.14 390.03 152.30 397.00 152.00
C 397.10 158.56 390.75 156.74 385.00 157.00 C 379.25 157.26 370.98 156.80 365.00 157.00
C 364.35 153.90 365.23 150.93 369.00 152.00
C 366.57 142.04 370.16 130.48 366.00 121.00
C 370.37 116.39 377.37 115.79 381.00 111.00
C 384.64 115.80 391.68 116.43 396.00 121.00
M 536.00 163.00 
C 536.00 171.33 536.00 179.67 536.00 188.00
C 431.33 188.00 326.67 188.00 222.00 188.00
C 222.00 179.67 222.00 171.33 222.00 163.00
C 326.77 158.88 431.25 158.77 536.00 163.00
M 536.00 191.00 
C 536.82 197.17 547.20 192.59 552.00 194.00
C 552.00 201.00 552.00 208.00 552.00 215.00
C 437.26 213.33 320.72 213.33 206.00 215.00
C 206.00 208.00 206.00 201.00 206.00 194.00
C 210.91 192.66 220.23 197.06 222.00 191.00
C 326.08 192.67 431.95 192.67 536.00 191.00
M 551.00 218.00 
C 551.00 233.33 551.00 248.67 551.00 264.00
C 436.00 264.00 321.00 264.00 206.00 264.00
C 206.00 248.67 206.00 233.33 206.00 218.00
C 321.00 218.00 436.00 218.00 551.00 218.00
M 203.00 219.00 
C 203.00 235.33 203.00 251.67 203.00 268.00
C 206.67 268.00 210.33 268.00 214.00 268.00
C 214.00 466.00 214.00 664.00 214.00 862.00
C 204.00 862.00 194.00 862.00 184.00 862.00
C 184.00 848.66 184.00 835.34 184.00 822.00 C 184.00 808.66 184.00 795.35 184.00 782.00 C 184.00 768.65 184.00 755.38 184.00 742.00 C 184.00 728.62 184.00 715.43 184.00 702.00 C 184.00 688.57 184.00 674.43 184.00 661.00 C 184.00 647.57 184.00 634.38 184.00 621.00 C 184.00 607.62 184.00 594.37 184.00 581.00 C 184.00 567.63 184.01 554.37 184.00 541.00 C 183.99 527.63 184.02 514.41 184.00 501.00 C 183.98 487.59 184.05 473.38 184.00 460.00 C 183.95 446.62 184.12 433.26 184.00 420.00 C 183.88 406.74 184.26 393.08 184.00 380.00 C 183.74 366.92 184.57 352.75 184.00 340.00 C 183.43 327.26 185.26 312.01 184.00 300.00 C 182.74 287.99 190.43 267.19 175.00 268.00
C 175.00 254.33 175.00 240.67 175.00 227.00
C 177.86 226.65 180.39 227.27 183.00 228.00
C 184.82 225.42 183.67 221.98 184.00 219.00
C 190.33 219.00 196.67 219.00 203.00 219.00
M 574.00 219.00 
C 568.87 230.11 581.35 223.46 583.74 228.26 C 586.14 233.05 582.95 242.31 584.00 248.00 C 585.05 253.69 583.21 262.06 584.00 268.00
C 567.25 266.57 575.22 288.11 574.00 301.00 C 572.78 313.89 574.55 330.32 574.00 344.00 C 573.45 357.68 574.25 372.95 574.00 387.00 C 573.75 401.05 574.11 415.78 574.00 430.00 C 573.89 444.22 574.05 458.68 574.00 473.00 C 573.95 487.32 574.02 501.60 574.00 516.00 C 573.98 530.40 574.01 545.58 574.00 560.00 C 573.99 574.42 574.00 588.63 574.00 603.00 C 574.00 617.37 574.00 631.64 574.00 646.00 C 574.00 660.36 574.00 674.65 574.00 689.00 C 574.00 703.35 574.00 717.63 574.00 732.00 C 574.00 746.37 574.00 760.60 574.00 775.00 C 574.00 789.40 574.00 803.53 574.00 818.00 C 574.00 832.47 574.00 847.48 574.00 862.00
C 563.41 861.37 552.14 863.29 542.00 861.00
C 544.34 663.83 542.33 465.58 543.00 268.00
C 557.80 272.02 554.38 259.62 554.93 249.93 C 555.47 240.24 555.25 228.49 554.00 219.00
C 560.67 219.00 567.33 219.00 574.00 219.00
M 539.00 268.00 
C 539.00 466.00 539.00 664.00 539.00 862.00
C 534.67 862.00 530.33 862.00 526.00 862.00
C 526.00 665.67 526.00 469.33 526.00 273.00
C 427.33 273.00 328.67 273.00 230.00 273.00
C 230.00 469.34 230.00 665.66 230.00 862.00
C 211.69 866.45 217.43 847.74 217.00 835.00 C 216.57 822.26 217.20 807.25 217.00 794.00 C 216.80 780.75 217.09 766.47 217.00 753.00 C 216.91 739.53 217.04 725.57 217.00 712.00 C 216.96 698.43 217.02 684.61 217.00 671.00 C 216.98 657.39 217.01 643.61 217.00 630.00 C 216.99 616.39 217.01 602.57 217.00 589.00 C 216.99 575.43 217.01 562.57 217.00 549.00 C 216.99 535.43 217.02 521.62 217.00 508.00 C 216.98 494.38 217.03 480.63 217.00 467.00 C 216.97 453.37 217.07 439.61 217.00 426.00 C 216.93 412.39 217.16 398.56 217.00 385.00 C 216.84 371.44 217.35 357.44 217.00 344.00 C 216.65 330.56 217.59 316.97 218.00 304.00 C 218.41 291.03 217.72 279.48 217.00 268.00
C 324.34 268.00 431.66 268.00 539.00 268.00
M 522.00 277.00 
C 522.00 472.00 522.00 667.00 522.00 862.00
C 425.67 862.00 329.33 862.00 233.00 862.00
C 233.00 667.00 233.00 472.00 233.00 277.00
C 329.33 277.00 425.67 277.00 522.00 277.00
M 586.00 880.00 
C 448.00 880.00 310.00 880.00 172.00 880.00
C 179.34 859.89 201.84 867.96 221.00 867.00 C 240.16 866.04 263.89 867.40 284.00 867.00 C 304.11 866.60 326.53 867.10 347.00 867.00 C 367.47 866.90 389.52 866.87 410.00 867.00 C 430.48 867.13 452.87 866.56 473.00 867.00 C 493.13 867.44 516.79 865.95 536.00 867.00 C 555.21 868.05 578.60 859.68 586.00 880.00
M 586.00 883.00 
C 586.00 889.33 586.00 895.67 586.00 902.00
C 448.00 902.00 310.00 902.00 172.00 902.00
C 172.00 895.33 172.00 888.67 172.00 882.00
C 309.50 884.33 448.08 882.34 586.00 883.00 Z"/>
</g>
<g fill="#1B275C" fill-opacity="1.00" stroke="None">
<path d="
M 396.00 121.00 
C 391.68 116.43 384.64 115.80 381.00 111.00
C 377.37 115.79 370.37 116.39 366.00 121.00
C 370.16 130.48 366.57 142.04 369.00 152.00
C 365.23 150.93 364.35 153.90 365.00 157.00
C 370.98 156.80 379.25 157.26 385.00 157.00 C 390.75 156.74 397.10 158.56 397.00 152.00
C 390.03 152.30 394.64 143.14 394.00 138.00 C 393.36 132.86 393.14 125.25 396.00 121.00
M 392.00 128.00 
C 392.00 134.00 392.00 140.00 392.00 146.00
C 385.12 144.41 376.88 144.42 370.00 146.00
C 368.31 140.54 371.05 134.13 370.00 128.00
C 376.84 125.22 385.14 125.23 392.00 128.00 Z"/>
</g>
<g fill="#1B275C" fill-opacity="0.00" stroke="None">
<path d="
M 392.00 128.00 
C 385.14 125.23 376.84 125.22 370.00 128.00
C 371.05 134.13 368.31 140.54 370.00 146.00
C 376.88 144.42 385.12 144.41 392.00 146.00
C 392.00 140.00 392.00 134.00 392.00 128.00 Z"/>
</g>
<g fill="#1B275C" fill-opacity="1.00" stroke="None">
<path d="
M 536.00 163.00 
C 431.25 158.77 326.77 158.88 222.00 163.00
C 222.00 171.33 222.00 179.67 222.00 188.00
C 326.67 188.00 431.33 188.00 536.00 188.00
C 536.00 179.67 536.00 171.33 536.00 163.00 Z"/>
</g>
<g fill="#1B275C" fill-opacity="1.00" stroke="None">
<path d="
M 536.00 191.00 
C 431.95 192.67 326.08 192.67 222.00 191.00
C 220.23 197.06 210.91 192.66 206.00 194.00
C 206.00 201.00 206.00 208.00 206.00 215.00
C 320.72 213.33 437.26 213.33 552.00 215.00
C 552.00 208.00 552.00 201.00 552.00 194.00
C 547.20 192.59 536.82 197.17 536.00 191.00 Z"/>
</g>
<g fill="#1B275C" fill-opacity="1.00" stroke="None">
<path d="
M 551.00 218.00 
C 436.00 218.00 321.00 218.00 206.00 218.00
C 206.00 233.33 206.00 248.67 206.00 264.00
C 321.00 264.00 436.00 264.00 551.00 264.00
C 551.00 248.67 551.00 233.33 551.00 218.00
M 528.00 261.00 
C 428.42 261.66 328.13 259.67 229.00 262.00
C 226.63 249.04 228.98 233.23 228.00 220.00
C 238.70 218.00 249.81 219.25 261.00 219.00 C 272.19 218.75 283.70 219.10 295.00 219.00 C 306.30 218.90 317.62 219.03 329.00 219.00 C 340.38 218.97 352.61 218.99 364.00 219.00 C 375.39 219.01 386.70 218.93 398.00 219.00 C 409.30 219.07 420.80 218.82 432.00 219.00 C 443.20 219.18 456.10 218.60 467.00 219.00 C 477.90 219.40 490.85 218.09 501.00 219.00 C 511.15 219.91 527.77 214.03 528.00 226.00 C 528.23 237.98 527.83 249.10 528.00 261.00 Z"/>
</g>
<g fill="#1B275C" fill-opacity="1.00" stroke="None">
<path d="
M 203.00 219.00 
C 196.67 219.00 190.33 219.00 184.00 219.00
C 183.67 221.98 184.82 225.42 183.00 228.00
C 180.39 227.27 177.86 226.65 175.00 227.00
C 175.00 240.67 175.00 254.33 175.00 268.00
C 190.43 267.19 182.74 287.99 184.00 300.00 C 185.26 312.01 183.43 327.26 184.00 340.00 C 184.57 352.75 183.74 366.92 184.00 380.00 C 184.26 393.08 183.88 406.74 184.00 420.00 C 184.12 433.26 183.95 446.62 184.00 460.00 C 184.05 473.38 183.98 487.59 184.00 501.00 C 184.02 514.41 183.99 527.63 184.00 541.00 C 184.01 554.37 184.00 567.63 184.00 581.00 C 184.00 594.37 184.00 607.62 184.00 621.00 C 184.00 634.38 184.00 647.57 184.00 661.00 C 184.00 674.43 184.00 688.57 184.00 702.00 C 184.00 715.43 184.00 728.62 184.00 742.00 C 184.00 755.38 184.00 768.65 184.00 782.00 C 184.00 795.35 184.00 808.66 184.00 822.00 C 184.00 835.34 184.00 848.66 184.00 862.00
C 194.00 862.00 204.00 862.00 214.00 862.00
C 214.00 664.00 214.00 466.00 214.00 268.00
C 210.33 268.00 206.67 268.00 203.00 268.00
C 203.00 251.67 203.00 235.33 203.00 219.00 Z"/>
</g>
<g fill="#1B275C" fill-opacity="0.00" stroke="None">
<path d="
M 528.00 261.00 
C 527.83 249.10 528.23 237.98 528.00 226.00 C 527.77 214.03 511.15 219.91 501.00 219.00 C 490.85 218.09 477.90 219.40 467.00 219.00 C 456.10 218.60 443.20 219.18 432.00 219.00 C 420.80 218.82 409.30 219.07 398.00 219.00 C 386.70 218.93 375.39 219.01 364.00 219.00 C 352.61 218.99 340.38 218.97 329.00 219.00 C 317.62 219.03 306.30 218.90 295.00 219.00 C 283.70 219.10 272.19 218.75 261.00 219.00 C 249.81 219.25 238.70 218.00 228.00 220.00
C 228.98 233.23 226.63 249.04 229.00 262.00
C 328.13 259.67 428.42 261.66 528.00 261.00
M 524.00 223.00 
C 524.00 234.67 524.00 246.33 524.00 258.00
C 426.67 258.00 329.33 258.00 232.00 258.00
C 232.00 246.33 232.00 234.67 232.00 223.00
C 329.33 223.00 426.67 223.00 524.00 223.00 Z"/>
</g>
<g fill="#1B275C" fill-opacity="1.00" stroke="None">
<path d="
M 574.00 219.00 
C 567.33 219.00 560.67 219.00 554.00 219.00
C 555.25 228.49 555.47 240.24 554.93 249.93 C 554.38 259.62 557.80 272.02 543.00 268.00
C 542.33 465.58 544.34 663.83 542.00 861.00
C 552.14 863.29 563.41 861.37 574.00 862.00
C 574.00 847.48 574.00 832.47 574.00 818.00 C 574.00 803.53 574.00 789.40 574.00 775.00 C 574.00 760.60 574.00 746.37 574.00 732.00 C 574.00 717.63 574.00 703.35 574.00 689.00 C 574.00 674.65 574.00 660.36 574.00 646.00 C 574.00 631.64 574.00 617.37 574.00 603.00 C 574.00 588.63 573.99 574.42 574.00 560.00 C 574.01 545.58 573.98 530.40 574.00 516.00 C 574.02 501.60 573.95 487.32 574.00 473.00 C 574.05 458.68 573.89 444.22 574.00 430.00 C 574.11 415.78 573.75 401.05 574.00 387.00 C 574.25 372.95 573.45 357.68 574.00 344.00 C 574.55 330.32 572.78 313.89 574.00 301.00 C 575.22 288.11 567.25 266.57 584.00 268.00
C 583.21 262.06 585.05 253.69 584.00 248.00 C 582.95 242.31 586.14 233.05 583.74 228.26 C 581.35 223.46 568.87 230.11 574.00 219.00 Z"/>
</g>
<g fill="#1B275C" fill-opacity="1.00" stroke="None">
<path d="
M 524.00 223.00 
C 426.67 223.00 329.33 223.00 232.00 223.00
C 232.00 234.67 232.00 246.33 232.00 258.00
C 329.33 258.00 426.67 258.00 524.00 258.00
C 524.00 246.33 524.00 234.67 524.00 223.00
M 365.00 239.00 
C 365.71 235.00 363.50 229.52 366.26 226.26 C 369.02 223.00 376.22 230.28 372.22 232.22 C 368.22 234.16 367.18 236.19 365.00 239.00
M 384.00 226.00 
C 387.05 229.46 387.47 238.10 380.97 238.97 C 374.48 239.85 373.19 230.40 376.00 226.00
C 378.00 228.24 375.23 238.61 381.01 236.99 C 386.79 235.37 380.64 228.86 384.00 226.00
M 388.00 239.00 
C 384.11 232.62 391.36 221.55 395.75 228.25 C 400.14 234.95 394.70 240.60 388.00 239.00
M 406.00 239.00 
C 403.28 238.83 400.33 239.61 398.00 238.00
C 399.71 234.05 396.54 229.94 399.00 226.00
C 401.73 228.30 401.22 229.63 400.80 233.25 C 400.39 236.86 404.97 236.52 406.00 239.00
M 409.00 239.00 
C 407.42 235.73 407.29 229.20 409.00 226.00
C 410.58 229.27 410.71 235.80 409.00 239.00
M 424.00 228.00 
C 421.45 229.49 415.49 226.57 415.03 232.03 C 414.56 237.48 420.35 237.70 424.00 236.00
C 422.66 242.38 412.18 238.34 412.22 232.78 C 412.27 227.21 420.41 223.44 424.00 228.00
M 239.00 242.00 
C 239.00 245.67 239.00 249.33 239.00 253.00
C 232.71 253.99 235.42 246.38 235.00 242.00 C 234.58 237.62 235.31 231.53 235.00 227.00
C 239.95 229.59 248.54 224.92 250.92 232.08 C 253.30 239.24 245.54 244.10 239.00 242.00
M 270.00 227.00 
C 286.51 230.10 282.29 256.41 264.78 253.22 C 247.26 250.03 251.44 223.51 270.00 227.00
M 300.00 253.00 
C 294.67 253.00 289.33 253.00 284.00 253.00
C 283.09 246.42 285.21 242.88 284.00 236.00 C 282.79 229.12 286.99 224.90 288.00 232.00 C 289.00 239.11 286.31 243.45 288.33 248.67 C 290.35 253.89 301.38 243.70 300.00 253.00
M 307.00 228.00 
C 302.25 235.22 311.79 251.64 302.00 253.00
C 304.22 245.83 296.91 226.74 307.00 228.00
M 334.00 233.00 
C 326.79 228.95 314.53 230.84 315.00 241.00 C 315.47 251.17 327.53 251.66 334.00 247.00
C 331.25 259.02 311.75 253.51 311.00 241.00 C 310.26 228.48 329.74 220.84 334.00 233.00
M 352.00 228.00 
C 352.46 233.51 344.40 230.01 341.00 231.00
C 336.54 242.43 352.15 233.78 352.00 242.00
C 348.33 242.00 344.67 242.00 341.00 242.00
C 338.14 252.51 347.73 248.40 353.00 250.00
C 350.71 255.90 342.10 251.77 337.00 253.00
C 337.62 244.41 335.73 235.15 338.00 227.00
C 342.20 229.10 347.39 227.50 352.00 228.00
M 456.00 240.00 
C 469.85 246.14 453.79 257.60 444.00 253.00
C 444.00 244.33 444.00 235.67 444.00 227.00
C 451.86 225.97 465.13 230.98 456.00 240.00
M 481.00 227.00 
C 497.26 230.05 492.03 257.22 474.93 253.07 C 457.82 248.93 462.51 223.53 481.00 227.00
M 504.00 237.00 
C 506.33 232.96 509.55 226.94 515.00 227.00
C 513.37 231.96 508.37 235.31 506.00 240.00
C 508.52 244.91 513.52 248.12 516.00 253.00
C 509.62 254.34 507.39 246.85 504.00 243.00
C 498.63 244.74 497.31 254.84 490.00 253.00
C 491.51 248.21 498.57 245.55 499.77 240.77 C 500.97 235.99 492.49 232.06 491.00 228.00
C 497.19 225.17 498.90 235.05 504.00 237.00
M 385.00 245.00 
C 374.09 239.51 373.74 258.02 385.00 252.00
C 383.50 258.28 373.39 254.48 373.22 248.78 C 373.06 243.07 383.07 238.77 385.00 245.00
M 398.00 255.00 
C 394.94 254.93 394.46 250.73 392.00 251.00
C 389.01 251.31 388.62 254.78 386.00 255.00
C 387.02 250.47 389.81 246.50 391.00 242.00
C 394.53 245.28 396.33 250.51 398.00 255.00
M 407.00 254.00 
C 405.23 256.03 401.52 254.53 399.00 255.00
C 399.64 250.83 397.71 245.34 400.00 242.00
C 402.20 246.77 398.69 254.61 407.00 254.00
M 415.00 255.00 
C 405.99 258.32 407.04 246.77 409.00 242.00
C 410.08 244.79 410.83 246.08 410.00 250.00 C 409.17 253.92 414.79 251.77 415.00 255.00 Z"/>
</g>
<g fill="#1B275C" fill-opacity="0.17" stroke="None">
<path d="
M 365.00 239.00 
C 367.18 236.19 368.22 234.16 372.22 232.22 C 376.22 230.28 369.02 223.00 366.26 226.26 C 363.50 229.52 365.71 235.00 365.00 239.00 Z"/>
</g>
<g fill="#1B275C" fill-opacity="0.00" stroke="None">
<path d="
M 384.00 226.00 
C 380.64 228.86 386.79 235.37 381.01 236.99 C 375.23 238.61 378.00 228.24 376.00 226.00
C 373.19 230.40 374.48 239.85 380.97 238.97 C 387.47 238.10 387.05 229.46 384.00 226.00 Z"/>
</g>
<g fill="#1B275C" fill-opacity="0.24" stroke="None">
<path d="
M 388.00 239.00 
C 394.70 240.60 400.14 234.95 395.75 228.25 C 391.36 221.55 384.11 232.62 388.00 239.00 Z"/>
</g>
<g fill="#1B275C" fill-opacity="0.00" stroke="None">
<path d="
M 406.00 239.00 
C 404.97 236.52 400.39 236.86 400.80 233.25 C 401.22 229.63 401.73 228.30 399.00 226.00
C 396.54 229.94 399.71 234.05 398.00 238.00
C 400.33 239.61 403.28 238.83 406.00 239.00 Z"/>
</g>
<g fill="#1B275C" fill-opacity="0.00" stroke="None">
<path d="
M 409.00 239.00 
C 410.71 235.80 410.58 229.27 409.00 226.00
C 407.29 229.20 407.42 235.73 409.00 239.00 Z"/>
</g>
<g fill="#1B275C" fill-opacity="0.00" stroke="None">
<path d="
M 424.00 228.00 
C 420.41 223.44 412.27 227.21 412.22 232.78 C 412.18 238.34 422.66 242.38 424.00 236.00
C 420.35 237.70 414.56 237.48 415.03 232.03 C 415.49 226.57 421.45 229.49 424.00 228.00 Z"/>
</g>
<g fill="#1B275C" fill-opacity="0.00" stroke="None">
<path d="
M 239.00 242.00 
C 245.54 244.10 253.30 239.24 250.92 232.08 C 248.54 224.92 239.95 229.59 235.00 227.00
C 235.31 231.53 234.58 237.62 235.00 242.00 C 235.42 246.38 232.71 253.99 239.00 253.00
C 239.00 249.33 239.00 245.67 239.00 242.00
M 239.00 239.00 
C 236.47 234.04 241.59 227.57 246.22 231.78 C 250.86 235.98 242.30 240.22 239.00 239.00 Z"/>
</g>
<g fill="#1B275C" fill-opacity="0.00" stroke="None">
<path d="
M 270.00 227.00 
C 251.44 223.51 247.26 250.03 264.78 253.22 C 282.29 256.41 286.51 230.10 270.00 227.00
M 271.00 231.00 
C 281.89 234.30 275.66 253.68 263.93 249.07 C 252.19 244.47 257.80 226.99 271.00 231.00 Z"/>
</g>
<g fill="#1B275C" fill-opacity="0.00" stroke="None">
<path d="
M 300.00 253.00 
C 301.38 243.70 290.35 253.89 288.33 248.67 C 286.31 243.45 289.00 239.11 288.00 232.00 C 286.99 224.90 282.79 229.12 284.00 236.00 C 285.21 242.88 283.09 246.42 284.00 253.00
C 289.33 253.00 294.67 253.00 300.00 253.00 Z"/>
</g>
<g fill="#1B275C" fill-opacity="0.01" stroke="None">
<path d="
M 307.00 228.00 
C 296.91 226.74 304.22 245.83 302.00 253.00
C 311.79 251.64 302.25 235.22 307.00 228.00 Z"/>
</g>
<g fill="#1B275C" fill-opacity="0.00" stroke="None">
<path d="
M 334.00 233.00 
C 329.74 220.84 310.26 228.48 311.00 241.00 C 311.75 253.51 331.25 259.02 334.00 247.00
C 327.53 251.66 315.47 251.17 315.00 241.00 C 314.53 230.84 326.79 228.95 334.00 233.00 Z"/>
</g>
<g fill="#1B275C" fill-opacity="0.00" stroke="None">
<path d="
M 352.00 228.00 
C 347.39 227.50 342.20 229.10 338.00 227.00
C 335.73 235.15 337.62 244.41 337.00 253.00
C 342.10 251.77 350.71 255.90 353.00 250.00
C 347.73 248.40 338.14 252.51 341.00 242.00
C 344.67 242.00 348.33 242.00 352.00 242.00
C 352.15 233.78 336.54 242.43 341.00 231.00
C 344.40 230.01 352.46 233.51 352.00 228.00 Z"/>
</g>
<g fill="#1B275C" fill-opacity="0.00" stroke="None">
<path d="
M 456.00 240.00 
C 465.13 230.98 451.86 225.97 444.00 227.00
C 444.00 235.67 444.00 244.33 444.00 253.00
C 453.79 257.60 469.85 246.14 456.00 240.00
M 448.00 238.00 
C 445.53 221.95 464.10 239.66 448.00 238.00
M 448.00 250.00 
C 444.71 243.71 452.29 238.84 456.69 243.31 C 461.10 247.77 451.09 251.14 448.00 250.00 Z"/>
</g>
<g fill="#1B275C" fill-opacity="0.00" stroke="None">
<path d="
M 481.00 227.00 
C 462.51 223.53 457.82 248.93 474.93 253.07 C 492.03 257.22 497.26 230.05 481.00 227.00
M 482.00 231.00 
C 492.77 234.98 485.33 254.38 473.93 249.07 C 462.52 243.77 469.78 226.49 482.00 231.00 Z"/>
</g>
<g fill="#1B275C" fill-opacity="0.00" stroke="None">
<path d="
M 504.00 237.00 
C 498.90 235.05 497.19 225.17 491.00 228.00
C 492.49 232.06 500.97 235.99 499.77 240.77 C 498.57 245.55 491.51 248.21 490.00 253.00
C 497.31 254.84 498.63 244.74 504.00 243.00
C 507.39 246.85 509.62 254.34 516.00 253.00
C 513.52 248.12 508.52 244.91 506.00 240.00
C 508.37 235.31 513.37 231.96 515.00 227.00
C 509.55 226.94 506.33 232.96 504.00 237.00 Z"/>
</g>
<g fill="#1B275C" fill-opacity="1.00" stroke="None">
<path d="
M 239.00 239.00 
C 242.30 240.22 250.86 235.98 246.22 231.78 C 241.59 227.57 236.47 234.04 239.00 239.00 Z"/>
</g>
<g fill="#1B275C" fill-opacity="1.00" stroke="None">
<path d="
M 271.00 231.00 
C 257.80 226.99 252.19 244.47 263.93 249.07 C 275.66 253.68 281.89 234.30 271.00 231.00 Z"/>
</g>
<g fill="#1B275C" fill-opacity="1.00" stroke="None">
<path d="
M 448.00 238.00 
C 464.10 239.66 445.53 221.95 448.00 238.00 Z"/>
</g>
<g fill="#1B275C" fill-opacity="1.00" stroke="None">
<path d="
M 482.00 231.00 
C 469.78 226.49 462.52 243.77 473.93 249.07 C 485.33 254.38 492.77 234.98 482.00 231.00 Z"/>
</g>
<g fill="#1B275C" fill-opacity="0.00" stroke="None">
<path d="
M 385.00 245.00 
C 383.07 238.77 373.06 243.07 373.22 248.78 C 373.39 254.48 383.50 258.28 385.00 252.00
C 373.74 258.02 374.09 239.51 385.00 245.00 Z"/>
</g>
<g fill="#1B275C" fill-opacity="0.09" stroke="None">
<path d="
M 398.00 255.00 
C 396.33 250.51 394.53 245.28 391.00 242.00
C 389.81 246.50 387.02 250.47 386.00 255.00
C 388.62 254.78 389.01 251.31 392.00 251.00
C 394.46 250.73 394.94 254.93 398.00 255.00 Z"/>
</g>
<g fill="#1B275C" fill-opacity="0.00" stroke="None">
<path d="
M 407.00 254.00 
C 398.69 254.61 402.20 246.77 400.00 242.00
C 397.71 245.34 399.64 250.83 399.00 255.00
C 401.52 254.53 405.23 256.03 407.00 254.00 Z"/>
</g>
<g fill="#1B275C" fill-opacity="0.00" stroke="None">
<path d="
M 415.00 255.00 
C 414.79 251.77 409.17 253.92 410.00 250.00 C 410.83 246.08 410.08 244.79 409.00 242.00
C 407.04 246.77 405.99 258.32 415.00 255.00 Z"/>
</g>
<g fill="#1B275C" fill-opacity="1.00" stroke="None">
<path d="
M 448.00 250.00 
C 451.09 251.14 461.10 247.77 456.69 243.31 C 452.29 238.84 444.71 243.71 448.00 250.00 Z"/>
</g>
<g fill="#1B275C" fill-opacity="1.00" stroke="None">
<path d="
M 539.00 268.00 
C 431.66 268.00 324.34 268.00 217.00 268.00
C 217.72 279.48 218.41 291.03 218.00 304.00 C 217.59 316.97 216.65 330.56 217.00 344.00 C 217.35 357.44 216.84 371.44 217.00 385.00 C 217.16 398.56 216.93 412.39 217.00 426.00 C 217.07 439.61 216.97 453.37 217.00 467.00 C 217.03 480.63 216.98 494.38 217.00 508.00 C 217.02 521.62 216.99 535.43 217.00 549.00 C 217.01 562.57 216.99 575.43 217.00 589.00 C 217.01 602.57 216.99 616.39 217.00 630.00 C 217.01 643.61 216.98 657.39 217.00 671.00 C 217.02 684.61 216.96 698.43 217.00 712.00 C 217.04 725.57 216.91 739.53 217.00 753.00 C 217.09 766.47 216.80 780.75 217.00 794.00 C 217.20 807.25 216.57 822.26 217.00 835.00 C 217.43 847.74 211.69 866.45 230.00 862.00
C 230.00 665.66 230.00 469.34 230.00 273.00
C 328.67 273.00 427.33 273.00 526.00 273.00
C 526.00 469.33 526.00 665.67 526.00 862.00
C 530.33 862.00 534.67 862.00 539.00 862.00
C 539.00 664.00 539.00 466.00 539.00 268.00 Z"/>
</g>
<g fill="#1B275C" fill-opacity="1.00" stroke="None">
<path d="
M 522.00 277.00 
C 425.67 277.00 329.33 277.00 233.00 277.00
C 233.00 472.00 233.00 667.00 233.00 862.00
C 329.33 862.00 425.67 862.00 522.00 862.00
C 522.00 667.00 522.00 472.00 522.00 277.00
M 281.00 294.00 
C 281.00 312.33 281.00 330.67 281.00 349.00
C 270.67 349.00 260.33 349.00 250.00 349.00
C 250.00 330.67 250.00 312.33 250.00 294.00
C 260.33 294.00 270.67 294.00 281.00 294.00
M 319.00 294.00 
C 319.00 312.33 319.00 330.67 319.00 349.00
C 305.96 348.63 285.50 354.01 288.00 337.00 C 290.50 319.99 286.13 310.34 288.00 294.00
C 298.33 294.00 308.67 294.00 319.00 294.00
M 357.00 294.00 
C 357.00 312.33 357.00 330.67 357.00 349.00
C 343.96 348.63 323.50 354.01 326.00 337.00 C 328.50 319.99 324.13 310.34 326.00 294.00
C 336.33 294.00 346.67 294.00 357.00 294.00
M 403.00 349.00 
C 403.00 330.67 403.00 312.33 403.00 294.00
C 413.39 296.36 434.26 287.53 434.00 302.00 C 433.74 316.47 433.73 326.53 434.00 341.00 C 434.27 355.47 413.38 346.64 403.00 349.00
M 472.00 294.00 
C 472.00 312.33 472.00 330.67 472.00 349.00
C 461.67 349.00 451.33 349.00 441.00 349.00
C 441.00 330.67 441.00 312.33 441.00 294.00
C 451.33 294.00 461.67 294.00 472.00 294.00
M 510.00 294.00 
C 510.00 312.33 510.00 330.67 510.00 349.00
C 499.61 346.64 478.74 355.47 479.00 341.00 C 479.26 326.53 479.27 316.47 479.00 302.00 C 478.73 287.53 499.62 296.36 510.00 294.00
M 281.00 356.00 
C 281.00 374.33 281.00 392.67 281.00 411.00
C 270.67 411.00 260.33 411.00 250.00 411.00
C 248.12 394.67 252.51 385.00 250.00 368.00 C 247.49 351.00 267.96 356.37 281.00 356.00
M 319.00 411.00 
C 308.67 411.00 298.33 411.00 288.00 411.00
C 287.49 402.57 288.68 396.69 288.00 388.00 C 287.32 379.31 289.26 373.44 288.00 364.00 C 286.74 354.56 295.07 355.98 303.00 356.00 C 310.93 356.02 320.42 354.25 319.00 364.00 C 317.58 373.75 319.71 378.18 319.00 387.00 C 318.29 395.82 319.54 402.38 319.00 411.00
M 357.00 356.00 
C 357.00 374.33 357.00 392.67 357.00 411.00
C 346.61 408.64 325.74 417.47 326.00 403.00 C 326.26 388.53 326.27 378.47 326.00 364.00 C 325.73 349.53 346.62 358.36 357.00 356.00
M 434.00 357.00 
C 434.00 375.00 434.00 393.00 434.00 411.00
C 423.67 411.00 413.33 411.00 403.00 411.00
C 403.00 392.67 403.00 374.33 403.00 356.00
C 413.32 356.43 424.08 355.00 434.00 357.00
M 472.00 357.00 
C 472.00 375.00 472.00 393.00 472.00 411.00
C 461.67 411.00 451.33 411.00 441.00 411.00
C 439.03 394.79 443.62 384.84 441.00 368.00 C 438.38 351.16 459.45 355.49 472.00 357.00
M 510.00 356.00 
C 510.00 374.33 510.00 392.67 510.00 411.00
C 499.61 408.64 478.74 417.47 479.00 403.00 C 479.26 388.53 479.27 378.47 479.00 364.00 C 478.73 349.53 499.62 358.36 510.00 356.00
M 510.00 436.00 
C 510.00 477.00 510.00 518.00 510.00 559.00
C 474.84 556.67 438.58 558.66 403.00 558.00
C 403.00 517.33 403.00 476.67 403.00 436.00
C 438.67 436.00 474.33 436.00 510.00 436.00
M 304.00 463.00 
C 308.79 470.19 309.02 470.11 304.00 477.00
C 302.32 479.31 301.09 482.71 299.00 485.00
C 296.60 483.40 295.38 480.48 294.00 478.00
C 293.73 477.53 293.32 476.53 293.00 476.00
C 291.79 474.02 289.06 472.81 289.00 470.00
C 288.97 468.42 289.31 468.98 290.00 468.00
C 292.57 464.35 295.04 460.08 298.00 457.00
C 298.25 456.74 298.75 455.92 299.00 456.00
C 301.49 456.83 302.68 461.02 304.00 463.00
M 317.00 482.00 
C 319.47 483.89 325.60 492.72 326.00 496.00
C 326.04 496.31 325.17 496.73 325.00 497.00
C 322.12 501.53 319.06 506.18 317.00 511.00
C 313.68 510.69 311.86 506.73 311.00 504.00
C 310.90 503.52 311.00 503.00 311.00 503.00
C 304.43 496.71 307.12 495.20 311.00 489.00
C 313.09 485.66 313.59 479.38 317.00 482.00
M 298.00 507.00 
C 299.73 510.00 305.12 515.32 300.69 518.70 C 296.27 522.07 297.63 528.85 293.00 531.00
C 293.02 530.95 292.26 530.22 292.00 530.00
C 290.05 528.32 289.52 526.18 288.00 524.00
C 287.41 523.15 287.42 523.11 287.00 522.00
C 286.01 519.37 283.10 516.88 283.00 514.00
C 282.99 513.67 283.91 513.25 284.00 513.00
C 284.80 510.76 285.58 509.01 287.00 507.00
C 287.21 506.70 287.87 506.27 288.00 506.00
C 289.04 503.88 290.38 498.84 293.00 498.00
C 294.72 497.45 297.47 504.56 298.00 507.00
M 357.00 577.00 
C 357.00 617.67 357.00 658.33 357.00 699.00
C 321.00 699.00 285.00 699.00 249.00 699.00
C 249.00 658.34 249.00 617.66 249.00 577.00
C 285.00 577.00 321.00 577.00 357.00 577.00
M 510.00 577.00 
C 510.00 617.67 510.00 658.33 510.00 699.00
C 474.33 699.00 438.67 699.00 403.00 699.00
C 403.00 658.34 403.00 617.66 403.00 577.00
C 438.67 577.00 474.33 577.00 510.00 577.00
M 357.00 721.00 
C 357.00 761.67 357.00 802.33 357.00 843.00
C 321.00 843.00 285.00 843.00 249.00 843.00
C 249.00 802.33 249.00 761.67 249.00 721.00
C 285.00 721.00 321.00 721.00 357.00 721.00
M 510.00 721.00 
C 510.00 761.67 510.00 802.33 510.00 843.00
C 474.33 843.00 438.67 843.00 403.00 843.00
C 403.00 802.33 403.00 761.67 403.00 721.00
C 438.67 721.00 474.33 721.00 510.00 721.00 Z"/>
</g>
<g fill="#1B275C" fill-opacity="0.00" stroke="None">
<path d="
M 281.00 294.00 
C 270.67 294.00 260.33 294.00 250.00 294.00
C 250.00 312.33 250.00 330.67 250.00 349.00
C 260.33 349.00 270.67 349.00 281.00 349.00
C 281.00 330.67 281.00 312.33 281.00 294.00 Z"/>
</g>
<g fill="#1B275C" fill-opacity="0.00" stroke="None">
<path d="
M 319.00 294.00 
C 308.67 294.00 298.33 294.00 288.00 294.00
C 286.13 310.34 290.50 319.99 288.00 337.00 C 285.50 354.01 305.96 348.63 319.00 349.00
C 319.00 330.67 319.00 312.33 319.00 294.00 Z"/>
</g>
<g fill="#1B275C" fill-opacity="0.00" stroke="None">
<path d="
M 357.00 294.00 
C 346.67 294.00 336.33 294.00 326.00 294.00
C 324.13 310.34 328.50 319.99 326.00 337.00 C 323.50 354.01 343.96 348.63 357.00 349.00
C 357.00 330.67 357.00 312.33 357.00 294.00 Z"/>
</g>
<g fill="#1B275C" fill-opacity="0.00" stroke="None">
<path d="
M 403.00 349.00 
C 413.38 346.64 434.27 355.47 434.00 341.00 C 433.73 326.53 433.74 316.47 434.00 302.00 C 434.26 287.53 413.39 296.36 403.00 294.00
C 403.00 312.33 403.00 330.67 403.00 349.00 Z"/>
</g>
<g fill="#1B275C" fill-opacity="0.00" stroke="None">
<path d="
M 472.00 294.00 
C 461.67 294.00 451.33 294.00 441.00 294.00
C 441.00 312.33 441.00 330.67 441.00 349.00
C 451.33 349.00 461.67 349.00 472.00 349.00
C 472.00 330.67 472.00 312.33 472.00 294.00 Z"/>
</g>
<g fill="#1B275C" fill-opacity="0.00" stroke="None">
<path d="
M 510.00 294.00 
C 499.62 296.36 478.73 287.53 479.00 302.00 C 479.27 316.47 479.26 326.53 479.00 341.00 C 478.74 355.47 499.61 346.64 510.00 349.00
C 510.00 330.67 510.00 312.33 510.00 294.00 Z"/>
</g>
<g fill="#1B275C" fill-opacity="0.00" stroke="None">
<path d="
M 281.00 356.00 
C 267.96 356.37 247.49 351.00 250.00 368.00 C 252.51 385.00 248.12 394.67 250.00 411.00
C 260.33 411.00 270.67 411.00 281.00 411.00
C 281.00 392.67 281.00 374.33 281.00 356.00 Z"/>
</g>
<g fill="#1B275C" fill-opacity="0.00" stroke="None">
<path d="
M 319.00 411.00 
C 319.54 402.38 318.29 395.82 319.00 387.00 C 319.71 378.18 317.58 373.75 319.00 364.00 C 320.42 354.25 310.93 356.02 303.00 356.00 C 295.07 355.98 286.74 354.56 288.00 364.00 C 289.26 373.44 287.32 379.31 288.00 388.00 C 288.68 396.69 287.49 402.57 288.00 411.00
C 298.33 411.00 308.67 411.00 319.00 411.00 Z"/>
</g>
<g fill="#1B275C" fill-opacity="0.00" stroke="None">
<path d="
M 357.00 356.00 
C 346.62 358.36 325.73 349.53 326.00 364.00 C 326.27 378.47 326.26 388.53 326.00 403.00 C 325.74 417.47 346.61 408.64 357.00 411.00
C 357.00 392.67 357.00 374.33 357.00 356.00 Z"/>
</g>
<g fill="#1B275C" fill-opacity="0.00" stroke="None">
<path d="
M 434.00 357.00 
C 424.08 355.00 413.32 356.43 403.00 356.00
C 403.00 374.33 403.00 392.67 403.00 411.00
C 413.33 411.00 423.67 411.00 434.00 411.00
C 434.00 393.00 434.00 375.00 434.00 357.00 Z"/>
</g>
<g fill="#1B275C" fill-opacity="0.00" stroke="None">
<path d="
M 472.00 357.00 
C 459.45 355.49 438.38 351.16 441.00 368.00 C 443.62 384.84 439.03 394.79 441.00 411.00
C 451.33 411.00 461.67 411.00 472.00 411.00
C 472.00 393.00 472.00 375.00 472.00 357.00 Z"/>
</g>
<g fill="#1B275C" fill-opacity="0.00" stroke="None">
<path d="
M 510.00 356.00 
C 499.62 358.36 478.73 349.53 479.00 364.00 C 479.27 378.47 479.26 388.53 479.00 403.00 C 478.74 417.47 499.61 408.64 510.00 411.00
C 510.00 392.67 510.00 374.33 510.00 356.00 Z"/>
</g>
<g fill="#1B275C" fill-opacity="0.00" stroke="None">
<path d="
M 510.00 436.00 
C 474.33 436.00 438.67 436.00 403.00 436.00
C 403.00 476.67 403.00 517.33 403.00 558.00
C 438.58 558.66 474.84 556.67 510.00 559.00
C 510.00 518.00 510.00 477.00 510.00 436.00
M 507.00 440.00 
C 507.00 478.33 507.00 516.67 507.00 555.00
C 473.33 555.00 439.67 555.00 406.00 555.00
C 406.16 516.62 405.40 478.02 407.00 440.00
C 440.33 440.00 473.67 440.00 507.00 440.00 Z"/>
</g>
<g fill="#1B275C" fill-opacity="1.00" stroke="None">
<path d="
M 507.00 440.00 
C 473.67 440.00 440.33 440.00 407.00 440.00
C 405.40 478.02 406.16 516.62 406.00 555.00
C 439.67 555.00 473.33 555.00 507.00 555.00
C 507.00 516.67 507.00 478.33 507.00 440.00 Z"/>
</g>
<g fill="#3182FD" fill-opacity="1.00" stroke="None">
<path d="
M 298.00 457.00 
C 297.85 459.32 298.11 461.67 298.00 464.00
C 292.78 463.61 293.91 464.10 295.00 468.00
C 293.33 468.00 291.67 468.00 290.00 468.00
C 289.31 468.98 288.97 468.42 289.00 470.00
C 289.43 470.31 293.94 467.76 295.00 469.00
C 295.08 471.44 294.65 474.40 293.00 476.00
C 293.32 476.53 293.73 477.53 294.00 478.00
C 295.69 477.49 295.02 470.55 299.00 474.00
C 297.82 477.08 297.91 480.58 298.00 484.00
C 299.03 479.42 299.94 474.60 303.00 471.00
C 304.87 472.14 303.61 475.13 304.00 477.00
C 309.02 470.11 308.79 470.19 304.00 463.00
C 302.52 462.33 300.69 465.03 299.00 464.00
C 299.00 461.33 299.00 458.67 299.00 456.00
C 298.75 455.92 298.25 456.74 298.00 457.00
M 300.00 465.00 
C 303.15 465.69 303.60 473.63 298.97 472.97 C 294.34 472.32 295.33 463.97 300.00 465.00 Z"/>
</g>
<g fill="#08A3F2" fill-opacity="1.00" stroke="None">
<path d="
M 304.00 463.00 
C 302.68 461.02 301.49 456.83 299.00 456.00
C 299.00 458.67 299.00 461.33 299.00 464.00
C 300.69 465.03 302.52 462.33 304.00 463.00 Z"/>
</g>
<g fill="#08A3F2" fill-opacity="1.00" stroke="None">
<path d="
M 290.00 468.00 
C 291.67 468.00 293.33 468.00 295.00 468.00
C 293.91 464.10 292.78 463.61 298.00 464.00
C 298.11 461.67 297.85 459.32 298.00 457.00
C 295.04 460.08 292.57 464.35 290.00 468.00 Z"/>
</g>
<g fill="#08A3F2" fill-opacity="1.00" stroke="None">
<path d="
M 300.00 465.00 
C 295.33 463.97 294.34 472.32 298.97 472.97 C 303.60 473.63 303.15 465.69 300.00 465.00 Z"/>
</g>
<g fill="#08A3F2" fill-opacity="1.00" stroke="None">
<path d="
M 289.00 470.00 
C 289.06 472.81 291.79 474.02 293.00 476.00
C 294.65 474.40 295.08 471.44 295.00 469.00
C 293.94 467.76 289.43 470.31 289.00 470.00 Z"/>
</g>
<g fill="#08A3F2" fill-opacity="1.00" stroke="None">
<path d="
M 294.00 478.00 
C 295.38 480.48 296.60 483.40 299.00 485.00
C 301.09 482.71 302.32 479.31 304.00 477.00
C 303.61 475.13 304.87 472.14 303.00 471.00
C 299.94 474.60 299.03 479.42 298.00 484.00
C 297.91 480.58 297.82 477.08 299.00 474.00
C 295.02 470.55 295.69 477.49 294.00 478.00 Z"/>
</g>
<g fill="#3182FD" fill-opacity="1.00" stroke="None">
<path d="
M 311.00 489.00 
C 310.66 491.41 313.37 494.30 309.00 495.00
C 313.93 494.55 312.67 500.39 311.00 503.00
C 311.00 503.00 310.90 503.52 311.00 504.00
C 311.79 502.35 313.77 500.41 316.00 501.00
C 314.18 503.58 315.33 507.02 315.00 510.00
C 314.89 504.48 319.43 501.18 320.00 496.00
C 321.83 495.77 323.47 496.07 325.00 497.00
C 325.17 496.73 326.04 496.31 326.00 496.00
C 323.40 493.04 322.23 494.15 319.22 490.78 C 316.22 487.40 317.90 485.32 317.00 482.00
C 313.59 479.38 313.09 485.66 311.00 489.00
M 315.00 489.00 
C 318.82 489.50 321.66 499.27 316.92 499.92 C 312.17 500.56 312.50 491.29 315.00 489.00 Z"/>
</g>
<g fill="#08A3F2" fill-opacity="1.00" stroke="None">
<path d="
M 326.00 496.00 
C 325.60 492.72 319.47 483.89 317.00 482.00
C 317.90 485.32 316.22 487.40 319.22 490.78 C 322.23 494.15 323.40 493.04 326.00 496.00 Z"/>
</g>
<g fill="#08A3F2" fill-opacity="1.00" stroke="None">
<path d="
M 311.00 503.00 
C 312.67 500.39 313.93 494.55 309.00 495.00
C 313.37 494.30 310.66 491.41 311.00 489.00
C 307.12 495.20 304.43 496.71 311.00 503.00 Z"/>
</g>
<g fill="#08A3F2" fill-opacity="1.00" stroke="None">
<path d="
M 315.00 489.00 
C 312.50 491.29 312.17 500.56 316.92 499.92 C 321.66 499.27 318.82 489.50 315.00 489.00 Z"/>
</g>
<g fill="#08A3F2" fill-opacity="1.00" stroke="None">
<path d="
M 311.00 504.00 
C 311.86 506.73 313.68 510.69 317.00 511.00
C 319.06 506.18 322.12 501.53 325.00 497.00
C 323.47 496.07 321.83 495.77 320.00 496.00
C 319.43 501.18 314.89 504.48 315.00 510.00
C 315.33 507.02 314.18 503.58 316.00 501.00
C 313.77 500.41 311.79 502.35 311.00 504.00 Z"/>
</g>
<g fill="#3182FD" fill-opacity="1.00" stroke="None">
<path d="
M 293.00 498.00 
C 291.68 500.69 293.99 505.15 293.00 508.00
C 290.81 508.76 289.68 506.70 288.00 506.00
C 287.87 506.27 287.21 506.70 287.00 507.00
C 289.58 509.75 288.54 514.53 284.00 513.00
C 283.91 513.25 282.99 513.67 283.00 514.00
C 284.53 515.00 286.16 515.15 288.00 515.00
C 287.67 517.39 290.68 520.86 287.00 522.00
C 287.42 523.11 287.41 523.15 288.00 524.00
C 289.70 523.80 289.84 518.00 293.00 520.00
C 291.82 523.08 291.91 526.58 292.00 530.00
C 292.26 530.22 293.02 530.95 293.00 531.00
C 294.52 526.26 292.05 516.52 300.00 519.00
C 298.19 515.76 298.10 510.06 298.00 507.00
C 297.47 504.56 294.72 497.45 293.00 498.00
M 296.00 509.00 
C 300.39 511.18 296.56 521.88 291.33 518.67 C 286.09 515.46 289.78 505.91 296.00 509.00 Z"/>
</g>
<g fill="#08A3F2" fill-opacity="1.00" stroke="None">
<path d="
M 288.00 506.00 
C 289.68 506.70 290.81 508.76 293.00 508.00
C 293.99 505.15 291.68 500.69 293.00 498.00
C 290.38 498.84 289.04 503.88 288.00 506.00 Z"/>
</g>
<g fill="#08A3F2" fill-opacity="1.00" stroke="None">
<path d="
M 284.00 513.00 
C 288.54 514.53 289.58 509.75 287.00 507.00
C 285.58 509.01 284.80 510.76 284.00 513.00 Z"/>
</g>
<g fill="#08A3F2" fill-opacity="1.00" stroke="None">
<path d="
M 293.00 531.00 
C 297.63 528.85 296.27 522.07 300.69 518.70 C 305.12 515.32 299.73 510.00 298.00 507.00
C 298.10 510.06 298.19 515.76 300.00 519.00
C 292.05 516.52 294.52 526.26 293.00 531.00 Z"/>
</g>
<g fill="#08A3F2" fill-opacity="1.00" stroke="None">
<path d="
M 296.00 509.00 
C 289.78 505.91 286.09 515.46 291.33 518.67 C 296.56 521.88 300.39 511.18 296.00 509.00 Z"/>
</g>
<g fill="#08A3F2" fill-opacity="1.00" stroke="None">
<path d="
M 287.00 522.00 
C 290.68 520.86 287.67 517.39 288.00 515.00
C 286.16 515.15 284.53 515.00 283.00 514.00
C 283.10 516.88 286.01 519.37 287.00 522.00 Z"/>
</g>
<g fill="#08A3F2" fill-opacity="1.00" stroke="None">
<path d="
M 288.00 524.00 
C 289.52 526.18 290.05 528.32 292.00 530.00
C 291.91 526.58 291.82 523.08 293.00 520.00
C 289.84 518.00 289.70 523.80 288.00 524.00 Z"/>
</g>
<g fill="#1B275C" fill-opacity="0.00" stroke="None">
<path d="
M 357.00 577.00 
C 321.00 577.00 285.00 577.00 249.00 577.00
C 249.00 617.66 249.00 658.34 249.00 699.00
C 285.00 699.00 321.00 699.00 357.00 699.00
C 357.00 658.33 357.00 617.67 357.00 577.00
M 354.00 581.00 
C 354.00 619.00 354.00 657.00 354.00 695.00
C 320.33 695.00 286.67 695.00 253.00 695.00
C 253.00 657.00 253.00 619.00 253.00 581.00
C 286.67 581.00 320.33 581.00 354.00 581.00 Z"/>
</g>
<g fill="#1B275C" fill-opacity="0.00" stroke="None">
<path d="
M 510.00 577.00 
C 474.33 577.00 438.67 577.00 403.00 577.00
C 403.00 617.66 403.00 658.34 403.00 699.00
C 438.67 699.00 474.33 699.00 510.00 699.00
C 510.00 658.33 510.00 617.67 510.00 577.00
M 507.00 581.00 
C 507.00 619.00 507.00 657.00 507.00 695.00
C 473.33 695.00 439.67 695.00 406.00 695.00
C 406.00 657.00 406.00 619.00 406.00 581.00
C 439.67 581.00 473.33 581.00 507.00 581.00 Z"/>
</g>
<g fill="#1B275C" fill-opacity="1.00" stroke="None">
<path d="
M 354.00 581.00 
C 320.33 581.00 286.67 581.00 253.00 581.00
C 253.00 619.00 253.00 657.00 253.00 695.00
C 286.67 695.00 320.33 695.00 354.00 695.00
C 354.00 657.00 354.00 619.00 354.00 581.00 Z"/>
</g>
<g fill="#1B275C" fill-opacity="1.00" stroke="None">
<path d="
M 507.00 581.00 
C 473.33 581.00 439.67 581.00 406.00 581.00
C 406.00 619.00 406.00 657.00 406.00 695.00
C 439.67 695.00 473.33 695.00 507.00 695.00
C 507.00 657.00 507.00 619.00 507.00 581.00 Z"/>
</g>
<g fill="#1B275C" fill-opacity="0.00" stroke="None">
<path d="
M 357.00 721.00 
C 321.00 721.00 285.00 721.00 249.00 721.00
C 249.00 761.67 249.00 802.33 249.00 843.00
C 285.00 843.00 321.00 843.00 357.00 843.00
C 357.00 802.33 357.00 761.67 357.00 721.00
M 354.00 725.00 
C 354.00 763.00 354.00 801.00 354.00 839.00
C 320.67 839.00 287.33 839.00 254.00 839.00
C 254.00 801.00 254.00 763.00 254.00 725.00
C 287.33 725.00 320.67 725.00 354.00 725.00 Z"/>
</g>
<g fill="#1B275C" fill-opacity="0.00" stroke="None">
<path d="
M 510.00 721.00 
C 474.33 721.00 438.67 721.00 403.00 721.00
C 403.00 761.67 403.00 802.33 403.00 843.00
C 438.67 843.00 474.33 843.00 510.00 843.00
C 510.00 802.33 510.00 761.67 510.00 721.00
M 507.00 725.00 
C 507.00 763.00 507.00 801.00 507.00 839.00
C 473.33 839.00 439.67 839.00 406.00 839.00
C 406.00 801.00 406.00 763.00 406.00 725.00
C 439.67 725.00 473.33 725.00 507.00 725.00 Z"/>
</g>
<g fill="#1B275C" fill-opacity="1.00" stroke="None">
<path d="
M 354.00 725.00 
C 320.67 725.00 287.33 725.00 254.00 725.00
C 254.00 763.00 254.00 801.00 254.00 839.00
C 287.33 839.00 320.67 839.00 354.00 839.00
C 354.00 801.00 354.00 763.00 354.00 725.00 Z"/>
</g>
<g fill="#1B275C" fill-opacity="1.00" stroke="None">
<path d="
M 507.00 725.00 
C 473.33 725.00 439.67 725.00 406.00 725.00
C 406.00 763.00 406.00 801.00 406.00 839.00
C 439.67 839.00 473.33 839.00 507.00 839.00
C 507.00 801.00 507.00 763.00 507.00 725.00 Z"/>
</g>
<g fill="#1B275C" fill-opacity="1.00" stroke="None">
<path d="
M 586.00 880.00 
C 578.60 859.68 555.21 868.05 536.00 867.00 C 516.79 865.95 493.13 867.44 473.00 867.00 C 452.87 866.56 430.48 867.13 410.00 867.00 C 389.52 866.87 367.47 866.90 347.00 867.00 C 326.53 867.10 304.11 866.60 284.00 867.00 C 263.89 867.40 240.16 866.04 221.00 867.00 C 201.84 867.96 179.34 859.89 172.00 880.00
C 310.00 880.00 448.00 880.00 586.00 880.00 Z"/>
</g>
<g fill="#1B275C" fill-opacity="1.00" stroke="None">
<path d="
M 586.00 883.00 
C 448.08 882.34 309.50 884.33 172.00 882.00
C 172.00 888.67 172.00 895.33 172.00 902.00
C 310.00 902.00 448.00 902.00 586.00 902.00
C 586.00 895.67 586.00 889.33 586.00 883.00 Z"/>
</g>
</svg>