<svg xmlns="http://www.w3.org/2000/svg" xmlns:v="https://svgstorm.com"
viewBox = "0 0 348 380"
width="348"
height="380">
<g fill="None" fill-opacity="0.0" stroke="#000000" stroke-opacity="0.00" stroke-width="0.3"><path d="
M 0.00 380.00 
L 348.00 380.00
L 348.00 0.00
L 0.00 0.00
L 0.00 380.00
M 278.00 107.00 
C 278.17 107.27 278.73 107.79 279.00 108.00
C 282.98 111.10 286.89 114.00 290.00 118.00
C 290.21 118.27 290.73 118.79 291.00 119.00
C 332.78 151.54 325.73 214.76 300.25 254.25 C 274.77 293.73 230.70 324.77 183.00 327.00
C 191.63 310.87 197.64 291.34 213.25 280.25 C 228.86 269.16 253.43 274.64 261.00 252.00
C 251.33 270.93 227.56 263.92 213.77 275.77 C 199.98 287.62 176.45 290.69 166.00 272.00
C 165.88 271.74 165.27 271.21 165.00 271.00
C 163.71 270.00 163.09 269.03 162.00 268.00
C 171.14 258.51 170.62 243.64 163.75 233.25 C 156.87 222.86 152.75 212.69 149.22 200.78 C 145.70 188.87 153.25 169.90 141.92 163.08 C 130.59 156.27 125.28 149.05 115.00 142.00
C 114.75 141.75 114.27 141.17 114.00 141.00
C 78.03 118.15 46.62 87.47 12.00 63.00
C 55.78 85.89 98.63 111.08 142.00 135.00
C 143.13 135.61 144.09 136.45 145.00 137.00
C 149.68 139.85 155.38 141.72 160.00 145.00
C 162.27 139.99 166.65 136.31 170.00 132.00
C 170.73 131.05 171.11 130.71 172.00 130.00
C 177.00 126.00 192.43 117.07 186.08 109.92 C 179.73 102.78 172.21 88.23 185.02 91.98 C 197.84 95.72 199.77 99.95 210.00 106.00
C 219.24 102.16 228.99 100.11 239.00 99.00
C 238.96 86.82 237.91 82.38 234.67 70.33 C 231.44 58.28 243.54 61.68 249.25 68.75 C 254.95 75.82 259.74 79.51 264.25 86.75 C 268.77 93.98 274.12 99.47 278.00 107.00 Z"/>
</g>
<g fill="None" fill-opacity="0.0" stroke="#FFFFFF" stroke-opacity="1.00" stroke-width="0.3"><path d="
M 172.00 130.00 
C 182.82 125.67 196.93 126.28 208.22 123.22 C 219.51 120.16 232.71 118.18 244.01 116.01 C 255.31 113.83 266.52 106.70 278.00 107.00
C 274.12 99.47 268.77 93.98 264.25 86.75 C 259.74 79.51 254.95 75.82 249.25 68.75 C 243.54 61.68 231.44 58.28 234.67 70.33 C 237.91 82.38 238.96 86.82 239.00 99.00
C 228.99 100.11 219.24 102.16 210.00 106.00
C 199.77 99.95 197.84 95.72 185.02 91.98 C 172.21 88.23 179.73 102.78 186.08 109.92 C 192.43 117.07 177.00 126.00 172.00 130.00 Z"/>
</g>
<g fill="None" fill-opacity="0.0" stroke="#FFFFFF" stroke-opacity="1.00" stroke-width="0.3"><path d="
M 114.00 141.00 
C 115.80 138.78 124.71 138.39 128.01 138.01 C 131.31 137.63 139.23 134.67 142.00 135.00
C 98.63 111.08 55.78 85.89 12.00 63.00
C 46.62 87.47 78.03 118.15 114.00 141.00 Z"/>
</g>
<g fill="None" fill-opacity="0.0" stroke="#000000" stroke-opacity="1.00" stroke-width="0.3"><path d="
M 172.00 130.00 
C 171.11 130.71 170.73 131.05 170.00 132.00
C 177.96 128.24 189.66 130.26 198.02 127.02 C 206.39 123.79 217.67 124.91 226.00 122.00 C 234.34 119.09 244.64 119.08 252.22 115.22 C 259.81 111.37 272.89 113.76 279.00 108.00
C 278.73 107.79 278.17 107.27 278.00 107.00
C 266.52 106.70 255.31 113.83 244.01 116.01 C 232.71 118.18 219.51 120.16 208.22 123.22 C 196.93 126.28 182.82 125.67 172.00 130.00 Z"/>
</g>
<g fill="None" fill-opacity="0.0" stroke="#FFFFFF" stroke-opacity="1.00" stroke-width="0.3"><path d="
M 170.00 132.00 
C 166.65 136.31 162.27 139.99 160.00 145.00
C 155.38 141.72 149.68 139.85 145.00 137.00
C 135.25 135.73 124.80 143.16 115.00 142.00
C 125.28 149.05 130.59 156.27 141.92 163.08 C 153.25 169.90 145.70 188.87 149.22 200.78 C 152.75 212.69 156.87 222.86 163.75 233.25 C 170.62 243.64 171.14 258.51 162.00 268.00
C 163.09 269.03 163.71 270.00 165.00 271.00
C 166.72 262.85 178.64 257.91 182.25 250.25 C 185.86 242.59 195.34 235.93 200.00 229.00
C 207.47 205.54 222.30 183.85 241.00 167.00
C 242.14 169.53 242.70 172.22 243.00 175.00
C 244.65 168.58 254.60 162.51 258.30 156.30 C 262.01 150.10 269.41 142.87 274.25 137.25 C 279.09 131.63 283.92 122.31 290.00 118.00
C 286.89 114.00 282.98 111.10 279.00 108.00
C 272.89 113.76 259.81 111.37 252.22 115.22 C 244.64 119.08 234.34 119.09 226.00 122.00 C 217.67 124.91 206.39 123.79 198.02 127.02 C 189.66 130.26 177.96 128.24 170.00 132.00 Z"/>
</g>
<g fill="None" fill-opacity="0.0" stroke="#000000" stroke-opacity="1.00" stroke-width="0.3"><path d="
M 243.00 175.00 
C 243.17 175.75 243.90 176.61 244.00 177.00
C 247.09 177.00 250.27 168.44 253.75 165.75 C 257.23 163.07 258.96 158.36 262.77 153.77 C 266.58 149.18 268.40 149.71 272.25 142.25 C 276.11 134.80 288.69 127.38 291.00 119.00
C 290.73 118.79 290.21 118.27 290.00 118.00
C 283.92 122.31 279.09 131.63 274.25 137.25 C 269.41 142.87 262.01 150.10 258.30 156.30 C 254.60 162.51 244.65 168.58 243.00 175.00 Z"/>
</g>
<g fill="None" fill-opacity="0.0" stroke="#FFFFFF" stroke-opacity="1.00" stroke-width="0.3"><path d="
M 244.00 177.00 
C 246.12 185.22 243.16 195.00 243.07 203.07 C 242.99 211.15 239.16 216.21 235.08 223.08 C 231.00 229.96 225.51 228.89 219.92 234.92 C 214.32 240.95 203.98 230.65 199.00 232.00
C 196.44 236.56 191.73 241.45 188.25 245.25 C 184.77 249.05 181.55 255.73 177.70 258.70 C 173.84 261.66 170.45 271.14 166.00 272.00
C 176.45 290.69 199.98 287.62 213.77 275.77 C 227.56 263.92 251.33 270.93 261.00 252.00
C 253.43 274.64 228.86 269.16 213.25 280.25 C 197.64 291.34 191.63 310.87 183.00 327.00
C 230.70 324.77 274.77 293.73 300.25 254.25 C 325.73 214.76 332.78 151.54 291.00 119.00
C 288.69 127.38 276.11 134.80 272.25 142.25 C 268.40 149.71 266.58 149.18 262.77 153.77 C 258.96 158.36 257.23 163.07 253.75 165.75 C 250.27 168.44 247.09 177.00 244.00 177.00 Z"/>
</g>
<g fill="None" fill-opacity="0.0" stroke="#000000" stroke-opacity="1.00" stroke-width="0.3"><path d="
M 114.00 141.00 
C 114.27 141.17 114.75 141.75 115.00 142.00
C 124.80 143.16 135.25 135.73 145.00 137.00
C 144.09 136.45 143.13 135.61 142.00 135.00
C 139.23 134.67 131.31 137.63 128.01 138.01 C 124.71 138.39 115.80 138.78 114.00 141.00 Z"/>
</g>
<g fill="None" fill-opacity="0.0" stroke="#000000" stroke-opacity="0.00" stroke-width="0.3"><path d="
M 200.00 229.00 
C 199.66 230.06 199.58 230.97 199.00 232.00
C 203.98 230.65 214.32 240.95 219.92 234.92 C 225.51 228.89 231.00 229.96 235.08 223.08 C 239.16 216.21 242.99 211.15 243.07 203.07 C 243.16 195.00 246.12 185.22 244.00 177.00
C 243.90 176.61 243.17 175.75 243.00 175.00
C 242.70 172.22 242.14 169.53 241.00 167.00
C 222.30 183.85 207.47 205.54 200.00 229.00 Z"/>
</g>
<g fill="None" fill-opacity="0.0" stroke="#000000" stroke-opacity="1.00" stroke-width="0.3"><path d="
M 165.00 271.00 
C 165.27 271.21 165.88 271.74 166.00 272.00
C 170.45 271.14 173.84 261.66 177.70 258.70 C 181.55 255.73 184.77 249.05 188.25 245.25 C 191.73 241.45 196.44 236.56 199.00 232.00
C 199.58 230.97 199.66 230.06 200.00 229.00
C 195.34 235.93 185.86 242.59 182.25 250.25 C 178.64 257.91 166.72 262.85 165.00 271.00 Z"/>
</g>
<g fill="#000000" fill-opacity="0.00" stroke="None">
<path d="
M 0.00 380.00 
L 348.00 380.00
L 348.00 0.00
L 0.00 0.00
L 0.00 380.00
M 278.00 107.00 
C 278.17 107.27 278.73 107.79 279.00 108.00
C 282.98 111.10 286.89 114.00 290.00 118.00
C 290.21 118.27 290.73 118.79 291.00 119.00
C 332.78 151.54 325.73 214.76 300.25 254.25 C 274.77 293.73 230.70 324.77 183.00 327.00
C 191.63 310.87 197.64 291.34 213.25 280.25 C 228.86 269.16 253.43 274.64 261.00 252.00
C 251.33 270.93 227.56 263.92 213.77 275.77 C 199.98 287.62 176.45 290.69 166.00 272.00
C 165.88 271.74 165.27 271.21 165.00 271.00
C 163.71 270.00 163.09 269.03 162.00 268.00
C 171.14 258.51 170.62 243.64 163.75 233.25 C 156.87 222.86 152.75 212.69 149.22 200.78 C 145.70 188.87 153.25 169.90 141.92 163.08 C 130.59 156.27 125.28 149.05 115.00 142.00
C 114.75 141.75 114.27 141.17 114.00 141.00
C 78.03 118.15 46.62 87.47 12.00 63.00
C 55.78 85.89 98.63 111.08 142.00 135.00
C 143.13 135.61 144.09 136.45 145.00 137.00
C 149.68 139.85 155.38 141.72 160.00 145.00
C 162.27 139.99 166.65 136.31 170.00 132.00
C 170.73 131.05 171.11 130.71 172.00 130.00
C 177.00 126.00 192.43 117.07 186.08 109.92 C 179.73 102.78 172.21 88.23 185.02 91.98 C 197.84 95.72 199.77 99.95 210.00 106.00
C 219.24 102.16 228.99 100.11 239.00 99.00
C 238.96 86.82 237.91 82.38 234.67 70.33 C 231.44 58.28 243.54 61.68 249.25 68.75 C 254.95 75.82 259.74 79.51 264.25 86.75 C 268.77 93.98 274.12 99.47 278.00 107.00 Z"/>
</g>
<g fill="#FFFFFF" fill-opacity="1.00" stroke="None">
<path d="
M 172.00 130.00 
C 182.82 125.67 196.93 126.28 208.22 123.22 C 219.51 120.16 232.71 118.18 244.01 116.01 C 255.31 113.83 266.52 106.70 278.00 107.00
C 274.12 99.47 268.77 93.98 264.25 86.75 C 259.74 79.51 254.95 75.82 249.25 68.75 C 243.54 61.68 231.44 58.28 234.67 70.33 C 237.91 82.38 238.96 86.82 239.00 99.00
C 228.99 100.11 219.24 102.16 210.00 106.00
C 199.77 99.95 197.84 95.72 185.02 91.98 C 172.21 88.23 179.73 102.78 186.08 109.92 C 192.43 117.07 177.00 126.00 172.00 130.00 Z"/>
</g>
<g fill="#FFFFFF" fill-opacity="1.00" stroke="None">
<path d="
M 114.00 141.00 
C 115.80 138.78 124.71 138.39 128.01 138.01 C 131.31 137.63 139.23 134.67 142.00 135.00
C 98.63 111.08 55.78 85.89 12.00 63.00
C 46.62 87.47 78.03 118.15 114.00 141.00 Z"/>
</g>
<g fill="#000000" fill-opacity="1.00" stroke="None">
<path d="
M 172.00 130.00 
C 171.11 130.71 170.73 131.05 170.00 132.00
C 177.96 128.24 189.66 130.26 198.02 127.02 C 206.39 123.79 217.67 124.91 226.00 122.00 C 234.34 119.09 244.64 119.08 252.22 115.22 C 259.81 111.37 272.89 113.76 279.00 108.00
C 278.73 107.79 278.17 107.27 278.00 107.00
C 266.52 106.70 255.31 113.83 244.01 116.01 C 232.71 118.18 219.51 120.16 208.22 123.22 C 196.93 126.28 182.82 125.67 172.00 130.00 Z"/>
</g>
<g fill="#FFFFFF" fill-opacity="1.00" stroke="None">
<path d="
M 170.00 132.00 
C 166.65 136.31 162.27 139.99 160.00 145.00
C 155.38 141.72 149.68 139.85 145.00 137.00
C 135.25 135.73 124.80 143.16 115.00 142.00
C 125.28 149.05 130.59 156.27 141.92 163.08 C 153.25 169.90 145.70 188.87 149.22 200.78 C 152.75 212.69 156.87 222.86 163.75 233.25 C 170.62 243.64 171.14 258.51 162.00 268.00
C 163.09 269.03 163.71 270.00 165.00 271.00
C 166.72 262.85 178.64 257.91 182.25 250.25 C 185.86 242.59 195.34 235.93 200.00 229.00
C 207.47 205.54 222.30 183.85 241.00 167.00
C 242.14 169.53 242.70 172.22 243.00 175.00
C 244.65 168.58 254.60 162.51 258.30 156.30 C 262.01 150.10 269.41 142.87 274.25 137.25 C 279.09 131.63 283.92 122.31 290.00 118.00
C 286.89 114.00 282.98 111.10 279.00 108.00
C 272.89 113.76 259.81 111.37 252.22 115.22 C 244.64 119.08 234.34 119.09 226.00 122.00 C 217.67 124.91 206.39 123.79 198.02 127.02 C 189.66 130.26 177.96 128.24 170.00 132.00 Z"/>
</g>
<g fill="#000000" fill-opacity="1.00" stroke="None">
<path d="
M 243.00 175.00 
C 243.17 175.75 243.90 176.61 244.00 177.00
C 247.09 177.00 250.27 168.44 253.75 165.75 C 257.23 163.07 258.96 158.36 262.77 153.77 C 266.58 149.18 268.40 149.71 272.25 142.25 C 276.11 134.80 288.69 127.38 291.00 119.00
C 290.73 118.79 290.21 118.27 290.00 118.00
C 283.92 122.31 279.09 131.63 274.25 137.25 C 269.41 142.87 262.01 150.10 258.30 156.30 C 254.60 162.51 244.65 168.58 243.00 175.00 Z"/>
</g>
<g fill="#FFFFFF" fill-opacity="1.00" stroke="None">
<path d="
M 244.00 177.00 
C 246.12 185.22 243.16 195.00 243.07 203.07 C 242.99 211.15 239.16 216.21 235.08 223.08 C 231.00 229.96 225.51 228.89 219.92 234.92 C 214.32 240.95 203.98 230.65 199.00 232.00
C 196.44 236.56 191.73 241.45 188.25 245.25 C 184.77 249.05 181.55 255.73 177.70 258.70 C 173.84 261.66 170.45 271.14 166.00 272.00
C 176.45 290.69 199.98 287.62 213.77 275.77 C 227.56 263.92 251.33 270.93 261.00 252.00
C 253.43 274.64 228.86 269.16 213.25 280.25 C 197.64 291.34 191.63 310.87 183.00 327.00
C 230.70 324.77 274.77 293.73 300.25 254.25 C 325.73 214.76 332.78 151.54 291.00 119.00
C 288.69 127.38 276.11 134.80 272.25 142.25 C 268.40 149.71 266.58 149.18 262.77 153.77 C 258.96 158.36 257.23 163.07 253.75 165.75 C 250.27 168.44 247.09 177.00 244.00 177.00 Z"/>
</g>
<g fill="#000000" fill-opacity="1.00" stroke="None">
<path d="
M 114.00 141.00 
C 114.27 141.17 114.75 141.75 115.00 142.00
C 124.80 143.16 135.25 135.73 145.00 137.00
C 144.09 136.45 143.13 135.61 142.00 135.00
C 139.23 134.67 131.31 137.63 128.01 138.01 C 124.71 138.39 115.80 138.78 114.00 141.00 Z"/>
</g>
<g fill="#000000" fill-opacity="0.00" stroke="None">
<path d="
M 200.00 229.00 
C 199.66 230.06 199.58 230.97 199.00 232.00
C 203.98 230.65 214.32 240.95 219.92 234.92 C 225.51 228.89 231.00 229.96 235.08 223.08 C 239.16 216.21 242.99 211.15 243.07 203.07 C 243.16 195.00 246.12 185.22 244.00 177.00
C 243.90 176.61 243.17 175.75 243.00 175.00
C 242.70 172.22 242.14 169.53 241.00 167.00
C 222.30 183.85 207.47 205.54 200.00 229.00 Z"/>
</g>
<g fill="#000000" fill-opacity="1.00" stroke="None">
<path d="
M 165.00 271.00 
C 165.27 271.21 165.88 271.74 166.00 272.00
C 170.45 271.14 173.84 261.66 177.70 258.70 C 181.55 255.73 184.77 249.05 188.25 245.25 C 191.73 241.45 196.44 236.56 199.00 232.00
C 199.58 230.97 199.66 230.06 200.00 229.00
C 195.34 235.93 185.86 242.59 182.25 250.25 C 178.64 257.91 166.72 262.85 165.00 271.00 Z"/>
</g>
</svg>